<?xml version="1.0" encoding="UTF-8"?>
<svg xmlns="http://www.w3.org/2000/svg" xmlns:xlink="http://www.w3.org/1999/xlink" width="743.522pt" height="151.73pt" viewBox="0 0 743.522 151.73" version="1.1">
<defs>
<g>
<symbol overflow="visible" id="glyph0-0">
<path style="stroke:none;" d=""/>
</symbol>
<symbol overflow="visible" id="glyph0-1">
<path style="stroke:none;" d="M 11.21875 -9.4375 C 11.21875 -2.421875 8.3125 -0.25 5.921875 -0.25 C 5.203125 -0.25 3.40625 -0.34375 2.671875 -1.59375 C 3.5 -1.46875 4.109375 -1.90625 4.109375 -2.703125 C 4.109375 -3.5625 3.40625 -3.859375 2.96875 -3.859375 C 2.671875 -3.859375 1.8125 -3.734375 1.8125 -2.640625 C 1.8125 -0.484375 3.703125 0.515625 6 0.515625 C 9.65625 0.515625 13.390625 -3.5 13.390625 -10.515625 C 13.390625 -19.25 9.8125 -21.0625 7.390625 -21.0625 C 4.234375 -21.0625 1.21875 -18.296875 1.21875 -14.03125 C 1.21875 -10.078125 3.796875 -7.140625 7.046875 -7.140625 C 9.71875 -7.140625 10.90625 -9.625 11.21875 -10.671875 Z M 7.109375 -7.65625 C 6.25 -7.65625 5.03125 -7.8125 4.046875 -9.71875 C 3.375 -10.96875 3.375 -12.4375 3.375 -14 C 3.375 -15.875 3.375 -17.1875 4.265625 -18.578125 C 4.71875 -19.25 5.546875 -20.34375 7.390625 -20.34375 C 11.15625 -20.34375 11.15625 -14.5625 11.15625 -13.296875 C 11.15625 -11.03125 10.140625 -7.65625 7.109375 -7.65625 Z M 7.109375 -7.65625 "/>
</symbol>
<symbol overflow="visible" id="glyph0-2">
<path style="stroke:none;" d="M 3.640625 -18.640625 C 3.953125 -18.515625 5.265625 -18.109375 6.59375 -18.109375 C 9.5625 -18.109375 11.1875 -19.703125 12.109375 -20.625 C 12.109375 -20.875 12.109375 -21.03125 11.921875 -21.03125 C 11.890625 -21.03125 11.828125 -21.03125 11.578125 -20.90625 C 10.453125 -20.4375 9.140625 -20.046875 7.546875 -20.046875 C 6.59375 -20.046875 5.15625 -20.171875 3.609375 -20.875 C 3.25 -21.03125 3.1875 -21.03125 3.15625 -21.03125 C 3 -21.03125 2.96875 -21 2.96875 -20.375 L 2.96875 -11.125 C 2.96875 -10.546875 2.96875 -10.390625 3.28125 -10.390625 C 3.4375 -10.390625 3.5 -10.453125 3.671875 -10.671875 C 4.6875 -12.109375 6.09375 -12.71875 7.6875 -12.71875 C 8.796875 -12.71875 11.1875 -12.015625 11.1875 -6.5625 C 11.1875 -5.546875 11.1875 -3.703125 10.234375 -2.234375 C 9.4375 -0.921875 8.1875 -0.25 6.828125 -0.25 C 4.71875 -0.25 2.578125 -1.71875 2.015625 -4.171875 C 2.140625 -4.140625 2.390625 -4.078125 2.515625 -4.078125 C 2.9375 -4.078125 3.734375 -4.296875 3.734375 -5.296875 C 3.734375 -6.15625 3.125 -6.5 2.515625 -6.5 C 1.78125 -6.5 1.3125 -6.0625 1.3125 -5.15625 C 1.3125 -2.390625 3.5 0.515625 6.890625 0.515625 C 10.171875 0.515625 13.296875 -2.328125 13.296875 -6.4375 C 13.296875 -10.265625 10.8125 -13.234375 7.71875 -13.234375 C 6.09375 -13.234375 4.71875 -12.625 3.640625 -11.46875 Z M 3.640625 -18.640625 "/>
</symbol>
<symbol overflow="visible" id="glyph0-3">
<path style="stroke:none;" d="M 23.109375 -4.65625 C 23.109375 -8.34375 21.296875 -11.0625 19.15625 -11.0625 C 16.984375 -11.0625 14.796875 -8.546875 14.796875 -4.65625 C 14.796875 -0.765625 16.953125 1.75 19.15625 1.75 C 21.296875 1.75 23.109375 -0.921875 23.109375 -4.65625 Z M 19.1875 1.25 C 18.359375 1.25 16.28125 0.484375 16.28125 -4.65625 C 16.28125 -9.8125 18.359375 -10.546875 19.1875 -10.546875 C 20.9375 -10.546875 22.53125 -8.03125 22.53125 -4.65625 C 22.53125 -1.28125 20.9375 1.25 19.1875 1.25 Z M 20.34375 -22.765625 C 20.5625 -23.109375 20.59375 -23.140625 20.59375 -23.296875 C 20.59375 -23.6875 20.296875 -23.875 20.046875 -23.875 C 19.734375 -23.875 19.609375 -23.65625 19.375 -23.390625 C 17.53125 -20.75 14.984375 -20.46875 13.671875 -20.46875 C 10.484375 -20.46875 8.546875 -22.3125 7.9375 -22.890625 C 7.515625 -23.265625 6.921875 -23.875 5.828125 -23.875 C 3.671875 -23.875 1.46875 -21.359375 1.46875 -17.46875 C 1.46875 -13.578125 3.640625 -11.0625 5.828125 -11.0625 C 7.96875 -11.0625 9.78125 -13.734375 9.78125 -17.46875 C 9.78125 -19.671875 9.109375 -21.171875 9.015625 -21.359375 C 10.96875 -20.109375 12.875 -19.953125 13.703125 -19.953125 C 15.75 -19.953125 17.21875 -20.71875 18.015625 -21.265625 L 18.046875 -21.234375 L 4.265625 0.578125 C 3.984375 1.015625 3.984375 1.078125 3.984375 1.171875 C 3.984375 1.53125 4.265625 1.75 4.5625 1.75 C 4.84375 1.75 4.9375 1.59375 5.15625 1.25 Z M 5.859375 -11.578125 C 5.03125 -11.578125 2.96875 -12.328125 2.96875 -17.46875 C 2.96875 -22.625 5.03125 -23.359375 5.859375 -23.359375 C 7.625 -23.359375 9.21875 -20.84375 9.21875 -17.46875 C 9.21875 -14.09375 7.625 -11.578125 5.859375 -11.578125 Z M 5.859375 -11.578125 "/>
</symbol>
<symbol overflow="visible" id="glyph0-4">
<path style="stroke:none;" d="M 19.796875 -21.640625 C 19.796875 -22.21875 19.765625 -22.25 19.578125 -22.25 C 19.4375 -22.25 19.40625 -22.21875 19.1875 -21.828125 L 17.78125 -19.15625 C 16.21875 -21.140625 14.3125 -22.28125 11.859375 -22.28125 C 6.40625 -22.28125 1.46875 -17.46875 1.46875 -10.90625 C 1.46875 -4.265625 6.40625 0.515625 11.890625 0.515625 C 16.765625 0.515625 19.796875 -3.796875 19.796875 -7.453125 C 19.796875 -7.78125 19.796875 -7.90625 19.5 -7.90625 C 19.25 -7.90625 19.25 -7.8125 19.21875 -7.515625 C 18.96875 -3.0625 15.78125 -0.3125 12.328125 -0.3125 C 9.078125 -0.3125 3.890625 -2.609375 3.890625 -10.90625 C 3.890625 -19.21875 9.1875 -21.453125 12.265625 -21.453125 C 15.875 -21.453125 18.484375 -18.328125 19.09375 -13.890625 C 19.15625 -13.515625 19.15625 -13.453125 19.4375 -13.453125 C 19.796875 -13.453125 19.796875 -13.515625 19.796875 -14.09375 Z M 19.796875 -21.640625 "/>
</symbol>
<symbol overflow="visible" id="glyph0-5">
<path style="stroke:none;" d="M 6.28125 -19.5 C 6.28125 -20.9375 6.65625 -20.9375 8.953125 -20.9375 L 8.953125 -21.765625 C 7.9375 -21.703125 6.3125 -21.703125 5.234375 -21.703125 C 4.140625 -21.703125 2.515625 -21.703125 1.5 -21.765625 L 1.5 -20.9375 C 3.796875 -20.9375 4.171875 -20.9375 4.171875 -19.5 L 4.171875 -2.265625 C 4.171875 -0.828125 3.796875 -0.828125 1.5 -0.828125 L 1.5 0 C 2.515625 -0.0625 4.140625 -0.0625 5.234375 -0.0625 C 6.3125 -0.0625 7.9375 -0.0625 8.953125 0 L 8.953125 -0.828125 C 6.65625 -0.828125 6.28125 -0.828125 6.28125 -2.265625 Z M 6.28125 -19.5 "/>
</symbol>
<symbol overflow="visible" id="glyph0-6">
<path style="stroke:none;" d="M 20.5 -10.234375 C 20.96875 -10.234375 21.453125 -10.234375 21.453125 -10.78125 C 21.453125 -11.34375 20.90625 -11.34375 20.375 -11.34375 L 2.546875 -11.34375 C 2.015625 -11.34375 1.46875 -11.34375 1.46875 -10.78125 C 1.46875 -10.234375 1.9375 -10.234375 2.421875 -10.234375 Z M 20.375 -4.5625 C 20.90625 -4.5625 21.453125 -4.5625 21.453125 -5.125 C 21.453125 -5.671875 20.96875 -5.671875 20.5 -5.671875 L 2.421875 -5.671875 C 1.9375 -5.671875 1.46875 -5.671875 1.46875 -5.125 C 1.46875 -4.5625 2.015625 -4.5625 2.546875 -4.5625 Z M 20.375 -4.5625 "/>
</symbol>
<symbol overflow="visible" id="glyph0-7">
<path style="stroke:none;" d="M 9.75 7.78125 C 9.75 7.75 9.75 7.6875 9.65625 7.59375 C 8.1875 6.09375 4.265625 2.015625 4.265625 -7.9375 C 4.265625 -17.875 8.125 -21.9375 9.6875 -23.53125 C 9.6875 -23.5625 9.75 -23.625 9.75 -23.71875 C 9.75 -23.8125 9.65625 -23.875 9.53125 -23.875 C 9.1875 -23.875 6.46875 -21.515625 4.90625 -18.015625 C 3.3125 -14.46875 2.875 -11.03125 2.875 -7.96875 C 2.875 -5.671875 3.09375 -1.78125 5 2.328125 C 6.53125 5.640625 9.140625 7.96875 9.53125 7.96875 C 9.6875 7.96875 9.75 7.90625 9.75 7.78125 Z M 9.75 7.78125 "/>
</symbol>
<symbol overflow="visible" id="glyph0-8">
<path style="stroke:none;" d="M 8.390625 -7.9375 C 8.390625 -10.234375 8.15625 -14.125 6.25 -18.234375 C 4.71875 -21.546875 2.109375 -23.875 1.71875 -23.875 C 1.625 -23.875 1.5 -23.84375 1.5 -23.6875 C 1.5 -23.625 1.53125 -23.59375 1.5625 -23.53125 C 3.09375 -21.9375 6.984375 -17.875 6.984375 -7.96875 C 6.984375 1.96875 3.125 6.03125 1.5625 7.625 C 1.53125 7.6875 1.5 7.71875 1.5 7.78125 C 1.5 7.9375 1.625 7.96875 1.71875 7.96875 C 2.078125 7.96875 4.78125 5.609375 6.34375 2.109375 C 7.9375 -1.4375 8.390625 -4.875 8.390625 -7.9375 Z M 8.390625 -7.9375 "/>
</symbol>
<symbol overflow="visible" id="glyph0-9">
<path style="stroke:none;" d="M 12.015625 -7.390625 L 20.46875 -7.390625 C 20.90625 -7.390625 21.453125 -7.390625 21.453125 -7.9375 C 21.453125 -8.515625 20.9375 -8.515625 20.46875 -8.515625 L 12.015625 -8.515625 L 12.015625 -16.953125 C 12.015625 -17.40625 12.015625 -17.953125 11.46875 -17.953125 C 10.90625 -17.953125 10.90625 -17.4375 10.90625 -16.953125 L 10.90625 -8.515625 L 2.453125 -8.515625 C 2.015625 -8.515625 1.46875 -8.515625 1.46875 -7.96875 C 1.46875 -7.390625 1.96875 -7.390625 2.453125 -7.390625 L 10.90625 -7.390625 L 10.90625 1.046875 C 10.90625 1.5 10.90625 2.046875 11.4375 2.046875 C 12.015625 2.046875 12.015625 1.53125 12.015625 1.046875 Z M 12.015625 -7.390625 "/>
</symbol>
<symbol overflow="visible" id="glyph1-0">
<path style="stroke:none;" d="M 4.890625 0 L 4.890625 -10.203125 L 0.734375 -10.203125 L 0.734375 0 Z M 4.578125 -0.609375 L 2.96875 -5.09375 L 4.578125 -9.59375 Z M 1.046875 -9.53125 L 2.625 -5.09375 L 1.046875 -0.65625 Z M 1.28125 -0.375 L 2.796875 -4.625 L 4.296875 -0.375 Z M 2.796875 -5.578125 L 1.28125 -9.828125 L 4.296875 -9.828125 Z M 2.796875 -5.578125 "/>
</symbol>
<symbol overflow="visible" id="glyph1-1">
<path style="stroke:none;" d="M 5.984375 -4.71875 L 5.984375 -5.8125 L 2.375 -5.8125 L 2.375 -9.09375 L 6.515625 -9.09375 L 6.515625 -10.203125 L 1.109375 -10.203125 L 1.109375 0 L 6.578125 0 L 6.578125 -1.109375 L 2.375 -1.109375 L 2.375 -4.71875 Z M 5.984375 -4.71875 "/>
</symbol>
<symbol overflow="visible" id="glyph1-2">
<path style="stroke:none;" d="M 4.609375 -1.9375 C 4.609375 -1.625 4.5 -1.375 4.28125 -1.1875 C 4.078125 -1 3.765625 -0.921875 3.34375 -0.921875 C 2.90625 -0.921875 2.5625 -1.03125 2.328125 -1.28125 C 2.078125 -1.515625 1.953125 -1.84375 1.9375 -2.265625 L 0.6875 -2.265625 C 0.6875 -1.5625 0.9375 -0.984375 1.421875 -0.546875 C 1.90625 -0.09375 2.546875 0.140625 3.34375 0.140625 C 4.109375 0.140625 4.71875 -0.0625 5.171875 -0.453125 C 5.625 -0.84375 5.859375 -1.375 5.859375 -2.03125 C 5.859375 -2.5625 5.6875 -3 5.34375 -3.34375 C 5.015625 -3.671875 4.390625 -4.03125 3.46875 -4.390625 C 2.890625 -4.640625 2.53125 -4.84375 2.375 -5 C 2.21875 -5.15625 2.15625 -5.359375 2.15625 -5.609375 C 2.15625 -5.921875 2.25 -6.1875 2.46875 -6.375 C 2.671875 -6.5625 2.953125 -6.65625 3.3125 -6.65625 C 3.671875 -6.65625 3.96875 -6.546875 4.203125 -6.296875 C 4.421875 -6.046875 4.53125 -5.765625 4.53125 -5.421875 L 5.765625 -5.421875 C 5.765625 -6.09375 5.53125 -6.640625 5.09375 -7.078125 C 4.640625 -7.5 4.046875 -7.71875 3.3125 -7.71875 C 2.609375 -7.71875 2.03125 -7.515625 1.59375 -7.09375 C 1.140625 -6.6875 0.921875 -6.1875 0.921875 -5.5625 C 0.921875 -5.21875 0.984375 -4.921875 1.125 -4.671875 C 1.25 -4.4375 1.46875 -4.203125 1.734375 -4.015625 C 2.015625 -3.8125 2.46875 -3.578125 3.140625 -3.296875 C 3.71875 -3.046875 4.109375 -2.8125 4.296875 -2.625 C 4.5 -2.4375 4.609375 -2.203125 4.609375 -1.9375 Z M 4.609375 -1.9375 "/>
</symbol>
<symbol overflow="visible" id="glyph1-3">
<path style="stroke:none;" d="M 2.546875 -9.40625 L 1.3125 -9.40625 L 1.3125 -7.578125 L 0.15625 -7.578125 L 0.15625 -6.5625 L 1.3125 -6.5625 L 1.3125 -1.859375 C 1.3125 -1.21875 1.453125 -0.734375 1.703125 -0.390625 C 1.96875 -0.03125 2.34375 0.140625 2.828125 0.140625 C 3.125 0.140625 3.40625 0.09375 3.6875 0 L 3.703125 -1.046875 C 3.53125 -0.984375 3.359375 -0.96875 3.203125 -0.96875 C 2.953125 -0.96875 2.796875 -1.046875 2.703125 -1.203125 C 2.59375 -1.359375 2.546875 -1.578125 2.546875 -1.875 L 2.546875 -6.5625 L 3.6875 -6.5625 L 3.6875 -7.578125 L 2.546875 -7.578125 Z M 2.546875 -9.40625 "/>
</symbol>
<symbol overflow="visible" id="glyph1-4">
<path style="stroke:none;" d="M 2.265625 0 L 2.265625 -7.578125 L 1.015625 -7.578125 L 1.015625 0 Z M 2.359375 -9.578125 C 2.359375 -9.78125 2.3125 -9.953125 2.1875 -10.109375 C 2.0625 -10.265625 1.890625 -10.34375 1.65625 -10.34375 C 1.421875 -10.34375 1.25 -10.265625 1.140625 -10.125 C 1 -9.96875 0.953125 -9.796875 0.953125 -9.578125 C 0.953125 -9.359375 1 -9.1875 1.140625 -9.0625 C 1.25 -8.921875 1.421875 -8.84375 1.65625 -8.84375 C 1.890625 -8.84375 2.0625 -8.921875 2.1875 -9.0625 C 2.3125 -9.1875 2.359375 -9.359375 2.359375 -9.578125 Z M 2.359375 -9.578125 "/>
</symbol>
<symbol overflow="visible" id="glyph1-5">
<path style="stroke:none;" d="M 2.09375 -7.578125 L 0.9375 -7.578125 L 0.9375 0 L 2.171875 0 L 2.171875 -5.6875 C 2.421875 -6.296875 2.875 -6.609375 3.484375 -6.609375 C 4.328125 -6.625 4.765625 -6.09375 4.78125 -5.046875 L 4.78125 0 L 6.015625 0 L 6.015625 -5.078125 C 6.046875 -5.515625 6.1875 -5.890625 6.421875 -6.1875 C 6.65625 -6.46875 6.953125 -6.609375 7.328125 -6.609375 C 7.796875 -6.609375 8.140625 -6.484375 8.328125 -6.21875 C 8.515625 -5.953125 8.625 -5.546875 8.625 -4.984375 L 8.625 0 L 9.859375 0 L 9.859375 -5.109375 C 9.828125 -6.84375 9.109375 -7.71875 7.71875 -7.71875 C 6.875 -7.71875 6.203125 -7.34375 5.71875 -6.609375 C 5.375 -7.34375 4.796875 -7.71875 3.9375 -7.71875 C 3.1875 -7.71875 2.578125 -7.4375 2.125 -6.875 Z M 2.09375 -7.578125 "/>
</symbol>
<symbol overflow="visible" id="glyph1-6">
<path style="stroke:none;" d="M 4.8125 0 L 6.109375 0 L 6.109375 -0.109375 C 5.953125 -0.546875 5.875 -1.046875 5.875 -1.640625 L 5.875 -5.453125 C 5.859375 -6.203125 5.671875 -6.75 5.265625 -7.140625 C 4.84375 -7.53125 4.265625 -7.71875 3.484375 -7.71875 C 3.015625 -7.71875 2.578125 -7.609375 2.1875 -7.421875 C 1.8125 -7.21875 1.484375 -6.9375 1.265625 -6.59375 C 1.03125 -6.234375 0.921875 -5.859375 0.921875 -5.484375 L 2.171875 -5.484375 C 2.171875 -5.8125 2.28125 -6.09375 2.53125 -6.328125 C 2.75 -6.546875 3.0625 -6.65625 3.421875 -6.65625 C 3.84375 -6.65625 4.140625 -6.5625 4.34375 -6.375 C 4.546875 -6.171875 4.640625 -5.84375 4.640625 -5.390625 L 4.640625 -4.59375 L 3.734375 -4.59375 C 2.828125 -4.578125 2.109375 -4.34375 1.59375 -3.90625 C 1.0625 -3.453125 0.796875 -2.84375 0.796875 -2.0625 C 0.796875 -1.359375 0.984375 -0.828125 1.375 -0.4375 C 1.765625 -0.0625 2.296875 0.140625 2.984375 0.140625 C 3.65625 0.125 4.21875 -0.1875 4.65625 -0.828125 C 4.6875 -0.4375 4.75 -0.15625 4.8125 0 Z M 3.171875 -0.984375 C 2.75 -0.984375 2.46875 -1.09375 2.296875 -1.28125 C 2.125 -1.46875 2.03125 -1.78125 2.03125 -2.203125 C 2.03125 -2.671875 2.203125 -3.03125 2.546875 -3.28125 C 2.890625 -3.53125 3.359375 -3.65625 3.9375 -3.671875 L 4.640625 -3.671875 L 4.640625 -1.859375 C 4.515625 -1.625 4.3125 -1.40625 4.046875 -1.25 C 3.765625 -1.078125 3.46875 -0.984375 3.171875 -0.984375 Z M 3.171875 -0.984375 "/>
</symbol>
<symbol overflow="visible" id="glyph1-7">
<path style="stroke:none;" d="M 3.625 0.140625 C 4.734375 0.140625 5.546875 -0.234375 6.09375 -0.984375 L 5.453125 -1.78125 C 5.203125 -1.484375 4.9375 -1.265625 4.65625 -1.140625 C 4.390625 -0.984375 4.0625 -0.921875 3.703125 -0.921875 C 3.125 -0.921875 2.6875 -1.109375 2.375 -1.484375 C 2.078125 -1.84375 1.921875 -2.421875 1.921875 -3.234375 L 1.921875 -3.40625 L 6.15625 -3.40625 L 6.15625 -4.234375 C 6.140625 -5.421875 5.921875 -6.3125 5.5 -6.875 C 5.046875 -7.4375 4.390625 -7.71875 3.5 -7.71875 C 2.609375 -7.71875 1.921875 -7.40625 1.4375 -6.75 C 0.9375 -6.109375 0.6875 -5.234375 0.6875 -4.109375 L 0.6875 -3.1875 C 0.703125 -2.09375 0.96875 -1.265625 1.46875 -0.703125 C 1.96875 -0.140625 2.6875 0.140625 3.625 0.140625 Z M 3.5 -6.65625 C 3.953125 -6.65625 4.296875 -6.5 4.53125 -6.203125 C 4.765625 -5.875 4.890625 -5.359375 4.921875 -4.640625 L 4.921875 -4.46875 L 1.9375 -4.46875 C 1.96875 -5.21875 2.109375 -5.765625 2.359375 -6.125 C 2.59375 -6.484375 2.984375 -6.65625 3.5 -6.65625 Z M 3.5 -6.65625 "/>
</symbol>
<symbol overflow="visible" id="glyph1-8">
<path style="stroke:none;" d="M 0.65625 -4.125 L 0.65625 -3.359375 C 0.671875 -2.25 0.90625 -1.390625 1.34375 -0.78125 C 1.796875 -0.15625 2.40625 0.140625 3.203125 0.140625 C 3.953125 0.125 4.53125 -0.1875 4.9375 -0.8125 L 5 0 L 6.140625 0 L 6.140625 -10.75 L 4.890625 -10.75 L 4.890625 -6.84375 C 4.484375 -7.4375 3.9375 -7.71875 3.203125 -7.71875 C 2.375 -7.71875 1.765625 -7.421875 1.3125 -6.796875 C 0.875 -6.1875 0.65625 -5.296875 0.65625 -4.125 Z M 1.90625 -3.421875 L 1.90625 -4.1875 C 1.90625 -5 2.03125 -5.625 2.296875 -6.03125 C 2.53125 -6.40625 2.953125 -6.609375 3.53125 -6.609375 C 4.109375 -6.609375 4.578125 -6.3125 4.890625 -5.703125 L 4.890625 -1.875 C 4.59375 -1.265625 4.125 -0.953125 3.515625 -0.953125 C 2.953125 -0.953125 2.53125 -1.140625 2.296875 -1.546875 C 2.03125 -1.953125 1.90625 -2.578125 1.90625 -3.421875 Z M 1.90625 -3.421875 "/>
</symbol>
<symbol overflow="visible" id="glyph1-9">
<path style="stroke:none;" d="M 7.0625 -9.09375 L 7.0625 -10.203125 L 0.421875 -10.203125 L 0.421875 -9.09375 L 3.09375 -9.09375 L 3.09375 0 L 4.375 0 L 4.375 -9.09375 Z M 7.0625 -9.09375 "/>
</symbol>
<symbol overflow="visible" id="glyph1-10">
<path style="stroke:none;" d="M 4.0625 -6.40625 L 4.046875 -7.609375 C 3.921875 -7.6875 3.765625 -7.71875 3.5625 -7.71875 C 2.953125 -7.71875 2.484375 -7.421875 2.15625 -6.8125 L 2.125 -7.578125 L 0.921875 -7.578125 L 0.921875 0 L 2.171875 0 L 2.171875 -5.421875 C 2.421875 -6.125 2.875 -6.46875 3.5 -6.46875 C 3.703125 -6.453125 3.890625 -6.4375 4.0625 -6.40625 Z M 4.0625 -6.40625 "/>
</symbol>
<symbol overflow="visible" id="glyph1-11">
<path style="stroke:none;" d="M 4.796875 -0.65625 L 4.8125 0 L 6 0 L 6 -7.578125 L 4.765625 -7.578125 L 4.765625 -1.96875 C 4.46875 -1.296875 3.953125 -0.96875 3.203125 -0.96875 C 2.5 -0.953125 2.140625 -1.53125 2.140625 -2.71875 L 2.140625 -7.578125 L 0.90625 -7.578125 L 0.90625 -2.640625 C 0.90625 -1.734375 1.078125 -1.046875 1.4375 -0.578125 C 1.78125 -0.09375 2.296875 0.140625 2.984375 0.140625 C 3.765625 0.140625 4.375 -0.125 4.796875 -0.65625 Z M 4.796875 -0.65625 "/>
</symbol>
<symbol overflow="visible" id="glyph1-12">
<path style="stroke:none;" d="M 5.546875 -2.578125 C 5.546875 -2.078125 5.40625 -1.6875 5.140625 -1.40625 C 4.84375 -1.109375 4.421875 -0.96875 3.859375 -0.96875 C 3.234375 -0.96875 2.765625 -1.140625 2.40625 -1.484375 C 2.046875 -1.84375 1.875 -2.328125 1.875 -2.953125 L 0.609375 -2.953125 C 0.609375 -2.359375 0.75 -1.828125 1.03125 -1.34375 C 1.3125 -0.875 1.71875 -0.5 2.21875 -0.25 C 2.71875 0.015625 3.265625 0.140625 3.859375 0.140625 C 4.78125 0.140625 5.515625 -0.109375 6.046875 -0.609375 C 6.578125 -1.125 6.859375 -1.78125 6.859375 -2.59375 C 6.859375 -3.390625 6.640625 -4.015625 6.203125 -4.5 C 5.765625 -4.984375 5.046875 -5.390625 4.046875 -5.71875 C 3.40625 -5.953125 2.921875 -6.203125 2.625 -6.5 C 2.3125 -6.78125 2.15625 -7.140625 2.15625 -7.578125 C 2.15625 -8.109375 2.296875 -8.5 2.578125 -8.8125 C 2.875 -9.09375 3.265625 -9.234375 3.78125 -9.234375 C 4.359375 -9.234375 4.8125 -9.0625 5.109375 -8.71875 C 5.40625 -8.359375 5.546875 -7.875 5.546875 -7.25 L 6.84375 -7.25 C 6.84375 -7.8125 6.71875 -8.34375 6.46875 -8.828125 C 6.203125 -9.296875 5.859375 -9.671875 5.375 -9.9375 C 4.90625 -10.21875 4.375 -10.34375 3.78125 -10.34375 C 2.90625 -10.34375 2.203125 -10.078125 1.671875 -9.546875 C 1.140625 -9.015625 0.859375 -8.359375 0.859375 -7.5625 C 0.859375 -7.078125 0.96875 -6.671875 1.140625 -6.3125 C 1.328125 -5.953125 1.625 -5.625 2.015625 -5.34375 C 2.375 -5.0625 2.921875 -4.796875 3.65625 -4.546875 C 4.375 -4.28125 4.875 -4.03125 5.15625 -3.765625 C 5.421875 -3.484375 5.546875 -3.078125 5.546875 -2.578125 Z M 5.546875 -2.578125 "/>
</symbol>
<symbol overflow="visible" id="glyph1-13">
<path style="stroke:none;" d="M 3.5625 -0.921875 C 2.984375 -0.921875 2.5625 -1.109375 2.3125 -1.484375 C 2.03125 -1.84375 1.90625 -2.46875 1.90625 -3.359375 L 1.90625 -4.328125 C 1.921875 -5.15625 2.046875 -5.75 2.328125 -6.109375 C 2.59375 -6.46875 3 -6.65625 3.5625 -6.65625 C 3.96875 -6.65625 4.296875 -6.515625 4.546875 -6.234375 C 4.796875 -5.96875 4.921875 -5.53125 4.953125 -4.984375 L 6.125 -4.984375 C 6.09375 -5.828125 5.859375 -6.5 5.40625 -6.984375 C 4.953125 -7.46875 4.328125 -7.71875 3.5625 -7.71875 C 2.609375 -7.71875 1.890625 -7.421875 1.40625 -6.828125 C 0.921875 -6.234375 0.671875 -5.359375 0.671875 -4.21875 L 0.671875 -3.390625 C 0.671875 -2.21875 0.921875 -1.328125 1.421875 -0.75 C 1.90625 -0.15625 2.625 0.140625 3.5625 0.140625 C 4.265625 0.140625 4.859375 -0.09375 5.34375 -0.59375 C 5.84375 -1.0625 6.09375 -1.65625 6.125 -2.390625 L 4.953125 -2.390625 C 4.9375 -1.921875 4.796875 -1.546875 4.546875 -1.3125 C 4.296875 -1.046875 3.96875 -0.921875 3.5625 -0.921875 Z M 3.5625 -0.921875 "/>
</symbol>
<symbol overflow="visible" id="glyph1-14">
<path style="stroke:none;" d="M 0.65625 -4.140625 L 0.65625 -3.3125 C 0.671875 -2.25 0.96875 -1.40625 1.484375 -0.78125 C 2.015625 -0.171875 2.71875 0.140625 3.59375 0.140625 C 4.484375 0.140625 5.203125 -0.171875 5.734375 -0.8125 C 6.265625 -1.46875 6.53125 -2.328125 6.53125 -3.421875 L 6.53125 -4.21875 C 6.515625 -5.296875 6.234375 -6.15625 5.703125 -6.78125 C 5.171875 -7.40625 4.453125 -7.71875 3.578125 -7.71875 C 2.71875 -7.71875 2 -7.40625 1.46875 -6.75 C 0.9375 -6.109375 0.65625 -5.25 0.65625 -4.140625 Z M 1.90625 -3.421875 L 1.90625 -4.140625 C 1.90625 -4.921875 2.0625 -5.53125 2.359375 -5.984375 C 2.671875 -6.421875 3.078125 -6.65625 3.578125 -6.65625 C 4.109375 -6.65625 4.515625 -6.421875 4.828125 -5.984375 C 5.140625 -5.53125 5.296875 -4.921875 5.296875 -4.140625 L 5.296875 -3.28125 C 5.25 -1.703125 4.6875 -0.921875 3.59375 -0.921875 C 3.078125 -0.921875 2.671875 -1.140625 2.359375 -1.59375 C 2.0625 -2.03125 1.90625 -2.640625 1.90625 -3.421875 Z M 1.90625 -3.421875 "/>
</symbol>
<symbol overflow="visible" id="glyph1-15">
<path style="stroke:none;" d="M 2.09375 -7.578125 L 0.921875 -7.578125 L 0.921875 0 L 2.171875 0 L 2.171875 -5.515625 C 2.328125 -5.84375 2.53125 -6.09375 2.765625 -6.3125 C 3.015625 -6.515625 3.28125 -6.609375 3.578125 -6.609375 C 3.984375 -6.609375 4.28125 -6.484375 4.484375 -6.234375 C 4.671875 -6 4.78125 -5.5625 4.78125 -4.984375 L 4.78125 0 L 6.015625 0 L 6.015625 -5.03125 C 6 -6.828125 5.3125 -7.71875 3.96875 -7.71875 C 3.21875 -7.71875 2.59375 -7.40625 2.125 -6.75 Z M 2.09375 -7.578125 "/>
</symbol>
<symbol overflow="visible" id="glyph1-16">
<path style="stroke:none;" d="M 1.484375 0 L 2.71875 0 L 2.71875 -6.5625 L 4 -6.5625 L 4 -7.578125 L 2.71875 -7.578125 L 2.71875 -8.296875 C 2.71875 -9.296875 3.0625 -9.796875 3.765625 -9.796875 C 3.953125 -9.796875 4.140625 -9.78125 4.328125 -9.734375 L 4.40625 -10.78125 C 4.140625 -10.859375 3.890625 -10.90625 3.640625 -10.90625 C 2.96875 -10.90625 2.4375 -10.6875 2.0625 -10.25 C 1.671875 -9.828125 1.484375 -9.21875 1.484375 -8.453125 L 1.484375 -7.578125 L 0.484375 -7.578125 L 0.484375 -6.5625 L 1.484375 -6.5625 Z M 1.484375 0 "/>
</symbol>
<symbol overflow="visible" id="glyph1-17">
<path style="stroke:none;" d="M 4.1875 -4.125 L 6 0 L 7.375 0 L 7.375 -0.09375 L 5.390625 -4.421875 C 5.90625 -4.65625 6.3125 -5 6.578125 -5.484375 C 6.859375 -5.953125 7 -6.5 7 -7.125 C 7 -8.140625 6.734375 -8.890625 6.21875 -9.421875 C 5.703125 -9.9375 4.953125 -10.203125 3.953125 -10.203125 L 1.109375 -10.203125 L 1.109375 0 L 2.390625 0 L 2.390625 -4.125 Z M 2.390625 -5.21875 L 2.390625 -9.09375 L 3.9375 -9.09375 C 5.125 -9.09375 5.703125 -8.4375 5.703125 -7.125 C 5.703125 -6.5625 5.546875 -6.09375 5.234375 -5.75 C 4.90625 -5.390625 4.46875 -5.21875 3.9375 -5.21875 Z M 2.390625 -5.21875 "/>
</symbol>
<symbol overflow="visible" id="glyph1-18">
<path style="stroke:none;" d="M 2.265625 0 L 2.265625 -10.75 L 1.015625 -10.75 L 1.015625 0 Z M 2.265625 0 "/>
</symbol>
<symbol overflow="visible" id="glyph1-19">
<path style="stroke:none;" d="M 6.40625 -3.421875 L 6.40625 -4.171875 C 6.40625 -5.359375 6.203125 -6.25 5.796875 -6.84375 C 5.375 -7.4375 4.75 -7.71875 3.921875 -7.71875 C 3.15625 -7.71875 2.5625 -7.390625 2.171875 -6.734375 L 2.171875 -10.75 L 0.9375 -10.75 L 0.9375 0 L 2.0625 0 L 2.125 -0.890625 C 2.53125 -0.203125 3.125 0.140625 3.9375 0.140625 C 4.734375 0.140625 5.34375 -0.15625 5.78125 -0.765625 C 6.203125 -1.34375 6.40625 -2.234375 6.40625 -3.421875 Z M 5.171875 -4.125 L 5.171875 -3.375 C 5.171875 -2.53125 5.0625 -1.921875 4.8125 -1.53125 C 4.578125 -1.140625 4.15625 -0.953125 3.59375 -0.953125 C 2.953125 -0.96875 2.46875 -1.3125 2.171875 -1.984375 L 2.171875 -5.578125 C 2.46875 -6.265625 2.9375 -6.609375 3.578125 -6.609375 C 4.140625 -6.609375 4.5625 -6.421875 4.8125 -6.046875 C 5.046875 -5.671875 5.171875 -5.03125 5.171875 -4.125 Z M 5.171875 -4.125 "/>
</symbol>
<symbol overflow="visible" id="glyph1-20">
<path style="stroke:none;" d="M 3 -2.0625 L 1.59375 -7.578125 L 0.25 -7.578125 L 2.46875 -0.0625 L 2.21875 0.78125 C 2.09375 1.203125 1.9375 1.5 1.734375 1.65625 C 1.53125 1.84375 1.25 1.921875 0.890625 1.921875 L 0.609375 1.890625 L 0.609375 2.953125 C 0.875 3.03125 1.09375 3.0625 1.265625 3.0625 C 1.6875 3.0625 2.078125 2.890625 2.421875 2.546875 C 2.75 2.21875 3.03125 1.71875 3.21875 1.078125 L 5.6875 -7.578125 L 4.375 -7.578125 Z M 3 -2.0625 "/>
</symbol>
<symbol overflow="visible" id="glyph1-21">
<path style="stroke:none;" d="M 7.484375 -3.234375 L 6.203125 -3.234375 C 6.125 -2.375 5.953125 -1.78125 5.65625 -1.453125 C 5.34375 -1.125 4.875 -0.953125 4.21875 -0.953125 C 3.546875 -0.953125 3.046875 -1.21875 2.703125 -1.78125 C 2.34375 -2.34375 2.171875 -3.125 2.171875 -4.15625 L 2.171875 -6.03125 C 2.171875 -7.078125 2.359375 -7.875 2.71875 -8.421875 C 3.09375 -8.96875 3.625 -9.234375 4.328125 -9.234375 C 4.9375 -9.234375 5.375 -9.0625 5.6875 -8.703125 C 5.96875 -8.34375 6.140625 -7.75 6.203125 -6.90625 L 7.484375 -6.90625 C 7.4375 -8.015625 7.15625 -8.859375 6.625 -9.453125 C 6.078125 -10.046875 5.328125 -10.34375 4.328125 -10.34375 C 3.25 -10.34375 2.421875 -9.953125 1.8125 -9.1875 C 1.1875 -8.421875 0.875 -7.375 0.875 -6.03125 L 0.875 -4.1875 C 0.875 -2.859375 1.171875 -1.8125 1.78125 -1.03125 C 2.359375 -0.25 3.1875 0.140625 4.203125 0.140625 C 5.21875 0.140625 6.015625 -0.140625 6.5625 -0.734375 C 7.125 -1.3125 7.4375 -2.15625 7.484375 -3.234375 Z M 7.484375 -3.234375 "/>
</symbol>
<symbol overflow="visible" id="glyph1-22">
<path style="stroke:none;" d="M 1.265625 0 L 2.515625 0 L 2.515625 -6.5625 L 3.75 -6.5625 L 3.75 -7.578125 L 2.515625 -7.578125 L 2.515625 -8.234375 C 2.515625 -8.734375 2.609375 -9.125 2.796875 -9.359375 C 2.984375 -9.609375 3.3125 -9.734375 3.78125 -9.734375 C 4.25 -9.71875 4.703125 -9.609375 5.15625 -9.375 L 5.359375 -10.46875 C 5.0625 -10.59375 4.796875 -10.703125 4.53125 -10.78125 C 4.265625 -10.859375 3.984375 -10.90625 3.6875 -10.90625 C 2.921875 -10.90625 2.34375 -10.671875 1.921875 -10.21875 C 1.484375 -9.734375 1.28125 -9.09375 1.265625 -8.28125 L 1.265625 -7.578125 L 0.28125 -7.578125 L 0.28125 -6.5625 L 1.265625 -6.5625 Z M 5.96875 0 L 5.96875 -7.578125 L 4.71875 -7.578125 L 4.71875 0 Z M 5.96875 0 "/>
</symbol>
<symbol overflow="visible" id="glyph1-23">
<path style="stroke:none;" d="M 7.734375 -4.203125 L 7.734375 -6.046875 C 7.71875 -7.4375 7.421875 -8.484375 6.8125 -9.234375 C 6.203125 -9.96875 5.375 -10.34375 4.296875 -10.34375 C 3.234375 -10.34375 2.375 -9.953125 1.78125 -9.1875 C 1.171875 -8.421875 0.875 -7.34375 0.875 -5.984375 L 0.875 -4.0625 C 0.890625 -2.71875 1.203125 -1.6875 1.828125 -0.96875 C 2.4375 -0.234375 3.265625 0.140625 4.3125 0.140625 C 5.40625 0.140625 6.25 -0.234375 6.84375 -0.984375 C 7.4375 -1.734375 7.734375 -2.8125 7.734375 -4.203125 Z M 6.453125 -5.984375 L 6.453125 -4.078125 C 6.4375 -3.03125 6.25 -2.265625 5.90625 -1.765625 C 5.5625 -1.265625 5.03125 -1 4.3125 -1 C 3.59375 -1 3.0625 -1.28125 2.703125 -1.828125 C 2.34375 -2.359375 2.15625 -3.15625 2.15625 -4.203125 L 2.15625 -6.03125 C 2.15625 -7.078125 2.34375 -7.859375 2.703125 -8.390625 C 3.0625 -8.921875 3.59375 -9.1875 4.296875 -9.1875 C 5.03125 -9.1875 5.5625 -8.921875 5.921875 -8.390625 C 6.28125 -7.859375 6.453125 -7.0625 6.453125 -5.984375 Z M 6.453125 -5.984375 "/>
</symbol>
<symbol overflow="visible" id="glyph1-24">
<path style="stroke:none;" d="M 3.0625 -1.875 L 1.578125 -7.578125 L 0.3125 -7.578125 L 2.59375 0 L 3.53125 0 L 5.765625 -7.578125 L 4.5 -7.578125 Z M 3.0625 -1.875 "/>
</symbol>
<symbol overflow="visible" id="glyph1-25">
<path style="stroke:none;" d="M 4.890625 -4.359375 C 4.84375 -3.234375 4.609375 -2.40625 4.15625 -1.890625 C 3.703125 -1.375 3.03125 -1.109375 2.15625 -1.09375 L 1.9375 -1.09375 L 1.9375 0 C 2.71875 0 3.359375 -0.109375 3.875 -0.328125 C 4.375 -0.546875 4.8125 -0.875 5.140625 -1.3125 C 5.46875 -1.734375 5.71875 -2.296875 5.890625 -3 C 6.046875 -3.703125 6.140625 -4.609375 6.140625 -5.734375 L 6.140625 -6.125 C 6.140625 -7.4375 5.890625 -8.484375 5.421875 -9.21875 C 4.9375 -9.96875 4.265625 -10.34375 3.40625 -10.34375 C 2.578125 -10.34375 1.921875 -10.03125 1.453125 -9.375 C 0.96875 -8.734375 0.734375 -7.875 0.734375 -6.8125 C 0.734375 -5.796875 0.953125 -4.984375 1.390625 -4.359375 C 1.828125 -3.734375 2.40625 -3.40625 3.15625 -3.40625 C 3.8125 -3.40625 4.390625 -3.734375 4.890625 -4.359375 Z M 3.375 -4.46875 C 2.921875 -4.46875 2.578125 -4.703125 2.328125 -5.15625 C 2.0625 -5.59375 1.9375 -6.1875 1.9375 -6.890625 C 1.9375 -7.59375 2.0625 -8.15625 2.34375 -8.609375 C 2.59375 -9.046875 2.953125 -9.265625 3.40625 -9.265625 C 3.8125 -9.265625 4.171875 -9 4.46875 -8.46875 C 4.765625 -7.921875 4.90625 -7.234375 4.90625 -6.390625 L 4.90625 -5.84375 C 4.75 -5.4375 4.53125 -5.109375 4.25 -4.859375 C 3.953125 -4.609375 3.671875 -4.46875 3.375 -4.46875 Z M 3.375 -4.46875 "/>
</symbol>
<symbol overflow="visible" id="glyph1-26">
<path style="stroke:none;" d="M 1.3125 -5.109375 L 2.3125 -4.84375 L 2.640625 -5.171875 C 2.890625 -5.390625 3.21875 -5.5 3.625 -5.5 C 4.125 -5.5 4.515625 -5.296875 4.8125 -4.875 C 5.109375 -4.453125 5.25 -3.921875 5.25 -3.234375 C 5.25 -2.53125 5.125 -1.96875 4.84375 -1.546875 C 4.578125 -1.140625 4.1875 -0.921875 3.71875 -0.921875 C 3.28125 -0.921875 2.9375 -1.0625 2.6875 -1.359375 C 2.40625 -1.65625 2.25 -2.09375 2.1875 -2.6875 L 1.015625 -2.6875 C 1.09375 -1.8125 1.359375 -1.125 1.84375 -0.609375 C 2.328125 -0.109375 2.953125 0.140625 3.71875 0.140625 C 4.578125 0.140625 5.25 -0.15625 5.75 -0.78125 C 6.234375 -1.375 6.484375 -2.203125 6.484375 -3.25 C 6.484375 -4.28125 6.25 -5.125 5.8125 -5.734375 C 5.34375 -6.359375 4.71875 -6.65625 3.9375 -6.65625 C 3.4375 -6.671875 2.984375 -6.53125 2.5625 -6.21875 L 2.8125 -9 L 6.203125 -9 L 6.203125 -10.203125 L 1.765625 -10.203125 Z M 1.3125 -5.109375 "/>
</symbol>
<symbol overflow="visible" id="glyph1-27">
<path style="stroke:none;" d="M 0.75 -8.234375 L 0.75 -7.75 C 0.75 -7.09375 0.921875 -6.578125 1.265625 -6.203125 C 1.59375 -5.8125 2.015625 -5.609375 2.546875 -5.609375 C 3.0625 -5.609375 3.5 -5.8125 3.828125 -6.203125 C 4.15625 -6.578125 4.3125 -7.078125 4.3125 -7.703125 L 4.3125 -8.203125 C 4.3125 -8.84375 4.140625 -9.359375 3.8125 -9.75 C 3.484375 -10.140625 3.0625 -10.34375 2.53125 -10.34375 C 2 -10.34375 1.578125 -10.140625 1.25 -9.734375 C 0.921875 -9.34375 0.75 -8.828125 0.75 -8.234375 Z M 1.65625 -7.703125 L 1.65625 -8.21875 C 1.65625 -8.609375 1.734375 -8.90625 1.890625 -9.15625 C 2.046875 -9.375 2.25 -9.5 2.53125 -9.5 C 2.796875 -9.5 3.015625 -9.375 3.171875 -9.15625 C 3.328125 -8.921875 3.40625 -8.625 3.40625 -8.234375 L 3.40625 -7.734375 C 3.40625 -7.328125 3.328125 -7.015625 3.171875 -6.78125 C 3.015625 -6.5625 2.796875 -6.4375 2.53125 -6.4375 C 2.265625 -6.4375 2.046875 -6.5625 1.890625 -6.796875 C 1.734375 -7.03125 1.65625 -7.328125 1.65625 -7.703125 Z M 4.859375 -2.5 L 4.859375 -2 C 4.859375 -1.34375 5.03125 -0.828125 5.359375 -0.4375 C 5.6875 -0.0625 6.125 0.140625 6.65625 0.140625 C 7.171875 0.140625 7.609375 -0.0625 7.9375 -0.4375 C 8.265625 -0.828125 8.4375 -1.328125 8.4375 -1.953125 L 8.4375 -2.453125 C 8.4375 -3.09375 8.265625 -3.625 7.9375 -4.015625 C 7.609375 -4.40625 7.171875 -4.609375 6.65625 -4.609375 C 6.125 -4.609375 5.6875 -4.40625 5.359375 -4.015625 C 5.03125 -3.609375 4.859375 -3.109375 4.859375 -2.5 Z M 5.765625 -1.953125 L 5.765625 -2.484375 C 5.765625 -2.875 5.859375 -3.1875 6.015625 -3.40625 C 6.171875 -3.640625 6.390625 -3.765625 6.640625 -3.765625 C 6.90625 -3.765625 7.125 -3.640625 7.28125 -3.40625 C 7.4375 -3.1875 7.53125 -2.890625 7.53125 -2.5 L 7.53125 -1.984375 C 7.53125 -1.59375 7.4375 -1.28125 7.28125 -1.046875 C 7.125 -0.796875 6.90625 -0.6875 6.65625 -0.6875 C 6.390625 -0.6875 6.1875 -0.796875 6.03125 -1.03125 C 5.859375 -1.265625 5.765625 -1.5625 5.765625 -1.953125 Z M 2.796875 -0.78125 L 6.984375 -8.734375 L 6.296875 -9.203125 L 2.109375 -1.234375 Z M 2.796875 -0.78125 "/>
</symbol>
<symbol overflow="visible" id="glyph1-28">
<path style="stroke:none;" d="M 3.234375 -3.796875 L 3.234375 -4.859375 L 0.328125 -4.859375 L 0.328125 -3.796875 Z M 3.234375 -3.796875 "/>
</symbol>
<symbol overflow="visible" id="glyph1-29">
<path style="stroke:none;" d="M 2.375 -3.984375 L 4.453125 -3.984375 C 5.375 -4 6.109375 -4.28125 6.625 -4.8125 C 7.140625 -5.34375 7.40625 -6.09375 7.40625 -7.078125 C 7.40625 -8.015625 7.125 -8.78125 6.578125 -9.359375 C 6.03125 -9.90625 5.296875 -10.203125 4.34375 -10.203125 L 1.109375 -10.203125 L 1.109375 0 L 2.375 0 Z M 2.375 -5.09375 L 2.375 -9.09375 L 4.359375 -9.09375 C 4.90625 -9.09375 5.328125 -8.90625 5.65625 -8.546875 C 5.953125 -8.171875 6.109375 -7.6875 6.109375 -7.078125 C 6.109375 -6.421875 5.96875 -5.9375 5.671875 -5.609375 C 5.359375 -5.265625 4.921875 -5.09375 4.34375 -5.09375 Z M 2.375 -5.09375 "/>
</symbol>
<symbol overflow="visible" id="glyph1-30">
<path style="stroke:none;" d="M 6.390625 -3.421875 L 6.390625 -4.25 C 6.390625 -5.40625 6.1875 -6.265625 5.765625 -6.859375 C 5.34375 -7.4375 4.734375 -7.71875 3.90625 -7.71875 C 3.109375 -7.71875 2.53125 -7.390625 2.109375 -6.734375 L 2.046875 -7.578125 L 0.9375 -7.578125 L 0.9375 2.90625 L 2.171875 2.90625 L 2.171875 -0.71875 C 2.5625 -0.140625 3.15625 0.140625 3.921875 0.140625 C 4.703125 0.140625 5.328125 -0.15625 5.75 -0.75 C 6.1875 -1.328125 6.390625 -2.234375 6.390625 -3.421875 Z M 5.15625 -4.125 L 5.15625 -3.375 C 5.15625 -2.53125 5.03125 -1.921875 4.78125 -1.515625 C 4.5 -1.125 4.09375 -0.921875 3.53125 -0.921875 C 2.921875 -0.921875 2.46875 -1.203125 2.171875 -1.796875 L 2.171875 -5.71875 C 2.46875 -6.3125 2.921875 -6.609375 3.515625 -6.609375 C 4.109375 -6.609375 4.515625 -6.40625 4.78125 -6.015625 C 5.03125 -5.609375 5.15625 -4.984375 5.15625 -4.125 Z M 5.15625 -4.125 "/>
</symbol>
<symbol overflow="visible" id="glyph1-31">
<path style="stroke:none;" d="M 2.75 -10.203125 L 1.109375 -10.203125 L 1.109375 0 L 2.375 0 L 2.375 -3.96875 L 2.265625 -7.921875 L 4.921875 0 L 5.890625 0 L 8.5625 -7.953125 L 8.453125 -3.96875 L 8.453125 0 L 9.71875 0 L 9.71875 -10.203125 L 8.078125 -10.203125 L 5.40625 -1.875 Z M 2.75 -10.203125 "/>
</symbol>
<symbol overflow="visible" id="glyph1-32">
<path style="stroke:none;" d="M 1.109375 0 L 3.390625 0 C 4.65625 0 5.625 -0.375 6.296875 -1.109375 C 6.953125 -1.84375 7.28125 -2.890625 7.28125 -4.234375 L 7.28125 -5.9375 C 7.28125 -7.28125 6.953125 -8.328125 6.3125 -9.078125 C 5.65625 -9.828125 4.71875 -10.203125 3.53125 -10.203125 L 1.109375 -10.203125 Z M 2.375 -9.09375 L 3.53125 -9.09375 C 4.359375 -9.09375 4.984375 -8.84375 5.40625 -8.34375 C 5.828125 -7.84375 6.03125 -7.0625 6.03125 -5.984375 L 6.03125 -4.171875 C 6.015625 -3.15625 5.8125 -2.390625 5.390625 -1.875 C 4.984375 -1.359375 4.3125 -1.109375 3.40625 -1.109375 L 2.375 -1.109375 Z M 2.375 -9.09375 "/>
</symbol>
<symbol overflow="visible" id="glyph2-0">
<path style="stroke:none;" d=""/>
</symbol>
<symbol overflow="visible" id="glyph2-1">
<path style="stroke:none;" d="M 3.515625 -9.953125 L 1.640625 -8 L 1.859375 -7.78125 L 3.5 -9.265625 L 5.15625 -7.78125 L 5.375 -8 Z M 3.515625 -9.953125 "/>
</symbol>
<symbol overflow="visible" id="glyph3-0">
<path style="stroke:none;" d=""/>
</symbol>
<symbol overflow="visible" id="glyph3-1">
<path style="stroke:none;" d="M 5.984375 -8.75 C 6.0625 -9.09375 6.09375 -9.21875 6.3125 -9.28125 C 6.421875 -9.3125 6.90625 -9.3125 7.203125 -9.3125 C 8.640625 -9.3125 9.3125 -9.25 9.3125 -8.140625 C 9.3125 -7.921875 9.25 -7.375 9.171875 -6.84375 L 9.15625 -6.671875 C 9.15625 -6.609375 9.203125 -6.53125 9.296875 -6.53125 C 9.4375 -6.53125 9.4375 -6.59375 9.484375 -6.828125 L 9.890625 -9.359375 C 9.921875 -9.5 9.921875 -9.53125 9.921875 -9.5625 C 9.921875 -9.71875 9.84375 -9.71875 9.546875 -9.71875 L 1.703125 -9.71875 C 1.375 -9.71875 1.359375 -9.703125 1.28125 -9.453125 L 0.40625 -6.875 C 0.390625 -6.84375 0.34375 -6.6875 0.34375 -6.671875 C 0.34375 -6.59375 0.40625 -6.53125 0.484375 -6.53125 C 0.609375 -6.53125 0.625 -6.578125 0.6875 -6.765625 C 1.296875 -8.5 1.59375 -9.3125 3.5 -9.3125 L 4.453125 -9.3125 C 4.8125 -9.3125 4.953125 -9.3125 4.953125 -9.15625 C 4.953125 -9.109375 4.953125 -9.078125 4.875 -8.828125 L 2.953125 -1.125 C 2.8125 -0.5625 2.78125 -0.421875 1.265625 -0.421875 C 0.90625 -0.421875 0.796875 -0.421875 0.796875 -0.140625 C 0.796875 0 0.96875 0 1.03125 0 C 1.390625 0 1.765625 -0.03125 2.125 -0.03125 L 4.359375 -0.03125 C 4.71875 -0.03125 5.109375 0 5.46875 0 C 5.625 0 5.765625 0 5.765625 -0.265625 C 5.765625 -0.421875 5.671875 -0.421875 5.296875 -0.421875 C 4 -0.421875 4 -0.546875 4 -0.765625 C 4 -0.78125 4 -0.875 4.0625 -1.109375 Z M 5.984375 -8.75 "/>
</symbol>
<symbol overflow="visible" id="glyph3-2">
<path style="stroke:none;" d="M 7.28125 -5.40625 C 7.46875 -5.40625 7.953125 -5.40625 7.953125 -5.859375 C 7.953125 -6.1875 7.671875 -6.1875 7.421875 -6.1875 L 4.25 -6.1875 C 2.09375 -6.1875 0.546875 -3.78125 0.546875 -2.09375 C 0.546875 -0.875 1.328125 0.140625 2.625 0.140625 C 4.3125 0.140625 6.171875 -1.671875 6.171875 -3.828125 C 6.171875 -4.390625 6.03125 -4.9375 5.6875 -5.40625 Z M 2.640625 -0.140625 C 1.90625 -0.140625 1.375 -0.703125 1.375 -1.6875 C 1.375 -2.546875 1.890625 -5.40625 4 -5.40625 C 4.625 -5.40625 5.3125 -5.109375 5.3125 -4 C 5.3125 -3.5 5.078125 -2.296875 4.578125 -1.46875 C 4.0625 -0.609375 3.28125 -0.140625 2.640625 -0.140625 Z M 2.640625 -0.140625 "/>
</symbol>
<symbol overflow="visible" id="glyph4-0">
<path style="stroke:none;" d=""/>
</symbol>
<symbol overflow="visible" id="glyph4-1">
<path style="stroke:none;" d="M 14.65625 -2.9375 C 14.65625 -3.796875 14.65625 -3.828125 14 -3.828125 C 10.734375 -3.828125 3.5625 -2.296875 -0.765625 5.484375 L -0.765625 6 C -0.765625 6.796875 -0.734375 6.828125 0 6.828125 C 0.609375 6.828125 0.640625 6.796875 0.796875 6.5625 C 3.40625 2.390625 7.8125 0.125 14.28125 0 C 14.65625 0 14.65625 -0.21875 14.65625 -0.890625 Z M 14.65625 -2.9375 "/>
</symbol>
<symbol overflow="visible" id="glyph4-2">
<path style="stroke:none;" d="M 15.109375 5.484375 C 10.78125 -2.328125 3.609375 -3.828125 0.34375 -3.828125 C -0.3125 -3.828125 -0.3125 -3.796875 -0.3125 -2.9375 L -0.3125 -0.890625 C -0.3125 -0.15625 -0.3125 0 0.125 0 C 2.078125 0.03125 5.234375 0.28125 8.09375 1.6875 C 11.53125 3.40625 12.84375 5.421875 13.640625 6.65625 C 13.734375 6.828125 13.921875 6.828125 14.34375 6.828125 C 15.078125 6.828125 15.109375 6.796875 15.109375 6 Z M 15.109375 5.484375 "/>
</symbol>
<symbol overflow="visible" id="glyph4-3">
<path style="stroke:none;" d="M 14.796875 51.3125 L 7.9375 27.40625 L 3.5 32.609375 L 4.015625 33.09375 L 6.1875 30.53125 L 13.515625 56.09375 C 14.5625 56.09375 14.59375 56.09375 14.859375 55.328125 L 32.359375 0 C 32.515625 -0.484375 32.515625 -0.609375 32.515625 -0.640625 C 32.515625 -0.984375 32.25 -1.28125 31.875 -1.28125 C 31.390625 -1.28125 31.265625 -0.859375 31.140625 -0.453125 Z M 14.796875 51.3125 "/>
</symbol>
<symbol overflow="visible" id="glyph5-0">
<path style="stroke:none;" d=""/>
</symbol>
<symbol overflow="visible" id="glyph5-1">
<path style="stroke:none;" d="M 0.984375 5.515625 C 0.953125 5.671875 0.890625 5.859375 0.890625 6.0625 C 0.890625 6.53125 1.28125 6.859375 1.75 6.859375 C 2.234375 6.859375 2.671875 6.53125 2.875 6.09375 C 3 5.796875 3.890625 1.96875 4.90625 -1.9375 C 5.546875 -0.34375 6.71875 0.3125 7.96875 0.3125 C 11.578125 0.3125 15.65625 -4.140625 15.65625 -8.953125 C 15.65625 -12.375 13.578125 -14.0625 11.375 -14.0625 C 8.578125 -14.0625 5.15625 -11.15625 4.109375 -6.921875 Z M 7.9375 -0.3125 C 5.765625 -0.3125 5.234375 -2.84375 5.234375 -3.21875 C 5.234375 -3.40625 6.03125 -6.4375 6.125 -6.921875 C 7.75 -13.265625 10.875 -13.421875 11.34375 -13.421875 C 12.78125 -13.421875 13.578125 -12.109375 13.578125 -10.234375 C 13.578125 -8.609375 12.71875 -5.453125 12.171875 -4.109375 C 11.21875 -1.90625 9.5625 -0.3125 7.9375 -0.3125 Z M 7.9375 -0.3125 "/>
</symbol>
<symbol overflow="visible" id="glyph5-2">
<path style="stroke:none;" d="M 15.140625 -12.9375 L 12.140625 -19.921875 C 12.5625 -20.6875 13.515625 -20.8125 13.890625 -20.84375 C 14.09375 -20.84375 14.4375 -20.875 14.4375 -21.421875 C 14.4375 -21.765625 14.15625 -21.765625 13.96875 -21.765625 C 13.421875 -21.765625 12.78125 -21.703125 12.234375 -21.703125 L 10.390625 -21.703125 C 8.453125 -21.703125 7.046875 -21.765625 7.015625 -21.765625 C 6.75 -21.765625 6.4375 -21.765625 6.4375 -21.171875 C 6.4375 -20.84375 6.71875 -20.84375 7.140625 -20.84375 C 8.984375 -20.84375 9.109375 -20.53125 9.4375 -19.765625 L 13.234375 -10.90625 L 6.3125 -3.5 C 5.15625 -2.265625 3.796875 -1.046875 1.4375 -0.921875 C 1.046875 -0.890625 0.796875 -0.890625 0.796875 -0.3125 C 0.796875 -0.21875 0.828125 0 1.171875 0 C 1.625 0 2.109375 -0.0625 2.546875 -0.0625 L 4.046875 -0.0625 C 5.0625 -0.0625 6.1875 0 7.171875 0 C 7.390625 0 7.78125 0 7.78125 -0.578125 C 7.78125 -0.890625 7.546875 -0.921875 7.359375 -0.921875 C 6.71875 -0.984375 6.3125 -1.34375 6.3125 -1.84375 C 6.3125 -2.390625 6.6875 -2.765625 7.625 -3.734375 L 10.453125 -6.828125 C 11.15625 -7.546875 12.84375 -9.40625 13.546875 -10.109375 L 16.890625 -2.265625 C 16.921875 -2.203125 17.046875 -1.875 17.046875 -1.84375 C 17.046875 -1.5625 16.359375 -0.984375 15.328125 -0.921875 C 15.140625 -0.921875 14.796875 -0.890625 14.796875 -0.3125 C 14.796875 0 15.109375 0 15.265625 0 C 15.8125 0 16.453125 -0.0625 16.984375 -0.0625 L 20.5 -0.0625 C 21.0625 -0.0625 21.671875 0 22.21875 0 C 22.4375 0 22.796875 0 22.796875 -0.609375 C 22.796875 -0.921875 22.46875 -0.921875 22.1875 -0.921875 C 20.265625 -0.953125 20.203125 -1.109375 19.671875 -2.296875 L 15.453125 -12.171875 L 19.5 -16.515625 C 19.828125 -16.828125 20.5625 -17.625 20.84375 -17.953125 C 22.21875 -19.375 23.484375 -20.6875 26.078125 -20.84375 C 26.390625 -20.875 26.71875 -20.875 26.71875 -21.421875 C 26.71875 -21.765625 26.421875 -21.765625 26.296875 -21.765625 C 25.84375 -21.765625 25.375 -21.703125 24.921875 -21.703125 L 23.453125 -21.703125 C 22.4375 -21.703125 21.328125 -21.765625 20.34375 -21.765625 C 20.109375 -21.765625 19.734375 -21.765625 19.734375 -21.203125 C 19.734375 -20.875 19.953125 -20.84375 20.140625 -20.84375 C 20.65625 -20.78125 21.203125 -20.53125 21.203125 -19.921875 L 21.171875 -19.859375 C 21.140625 -19.640625 21.0625 -19.3125 20.71875 -18.9375 Z M 15.140625 -12.9375 "/>
</symbol>
<symbol overflow="visible" id="glyph5-3">
<path style="stroke:none;" d="M 4.59375 -0.703125 C 5.390625 0.03125 6.5625 0.3125 7.65625 0.3125 C 9.6875 0.3125 11.09375 -1.046875 11.828125 -2.046875 C 12.140625 -0.34375 13.484375 0.3125 14.59375 0.3125 C 15.5625 0.3125 16.3125 -0.25 16.890625 -1.40625 C 17.40625 -2.484375 17.84375 -4.4375 17.84375 -4.5625 C 17.84375 -4.71875 17.71875 -4.84375 17.53125 -4.84375 C 17.25 -4.84375 17.21875 -4.6875 17.078125 -4.203125 C 16.609375 -2.328125 16 -0.3125 14.6875 -0.3125 C 13.765625 -0.3125 13.703125 -1.140625 13.703125 -1.78125 C 13.703125 -2.515625 14 -3.671875 14.21875 -4.625 L 15.109375 -8.0625 C 15.234375 -8.671875 15.59375 -10.109375 15.75 -10.671875 C 15.9375 -11.4375 16.28125 -12.8125 16.28125 -12.9375 C 16.28125 -13.421875 15.90625 -13.734375 15.421875 -13.734375 C 15.140625 -13.734375 14.46875 -13.609375 14.21875 -12.65625 L 11.984375 -3.796875 C 11.828125 -3.15625 11.828125 -3.09375 11.40625 -2.578125 C 11.03125 -2.046875 9.78125 -0.3125 7.78125 -0.3125 C 6 -0.3125 5.421875 -1.625 5.421875 -3.125 C 5.421875 -4.046875 5.703125 -5.15625 5.828125 -5.703125 L 7.265625 -11.4375 C 7.421875 -12.046875 7.6875 -13.0625 7.6875 -13.265625 C 7.6875 -13.765625 7.265625 -14.0625 6.859375 -14.0625 C 6.5625 -14.0625 5.859375 -13.96875 5.609375 -12.9375 L 0.984375 5.515625 C 0.953125 5.671875 0.890625 5.859375 0.890625 6.0625 C 0.890625 6.53125 1.28125 6.859375 1.75 6.859375 C 2.671875 6.859375 2.875 6.125 3.09375 5.234375 Z M 4.59375 -0.703125 "/>
</symbol>
<symbol overflow="visible" id="glyph5-4">
<path style="stroke:none;" d="M 4.046875 -2.578125 C 5.421875 -4.140625 6.53125 -5.125 8.125 -6.5625 C 10.046875 -8.21875 10.875 -9.015625 11.3125 -9.5 C 13.546875 -11.703125 14.65625 -13.546875 14.65625 -13.796875 C 14.65625 -14.0625 14.40625 -14.0625 14.34375 -14.0625 C 14.125 -14.0625 14.0625 -13.921875 13.890625 -13.703125 C 13.09375 -12.328125 12.328125 -11.671875 11.5 -11.671875 C 10.84375 -11.671875 10.484375 -11.953125 9.875 -12.71875 C 9.21875 -13.515625 8.671875 -14.0625 7.75 -14.0625 C 5.421875 -14.0625 4.015625 -11.15625 4.015625 -10.484375 C 4.015625 -10.390625 4.046875 -10.203125 4.328125 -10.203125 C 4.59375 -10.203125 4.625 -10.328125 4.71875 -10.546875 C 5.265625 -11.828125 6.796875 -12.046875 7.390625 -12.046875 C 8.0625 -12.046875 8.703125 -11.828125 9.375 -11.53125 C 10.578125 -11.03125 11.09375 -11.03125 11.40625 -11.03125 C 11.640625 -11.03125 11.765625 -11.03125 11.921875 -11.0625 C 10.875 -9.8125 9.140625 -8.28125 7.71875 -6.984375 L 4.5 -4.015625 C 2.546875 -2.046875 1.375 -0.15625 1.375 0.0625 C 1.375 0.25 1.53125 0.3125 1.71875 0.3125 C 1.90625 0.3125 1.9375 0.28125 2.171875 -0.09375 C 2.671875 -0.890625 3.703125 -2.078125 4.875 -2.078125 C 5.546875 -2.078125 5.859375 -1.84375 6.5 -1.046875 C 7.109375 -0.34375 7.65625 0.3125 8.671875 0.3125 C 11.796875 0.3125 13.578125 -3.734375 13.578125 -4.46875 C 13.578125 -4.59375 13.546875 -4.78125 13.234375 -4.78125 C 12.96875 -4.78125 12.9375 -4.65625 12.84375 -4.328125 C 12.140625 -2.453125 10.265625 -1.6875 9.015625 -1.6875 C 8.34375 -1.6875 7.71875 -1.90625 7.046875 -2.203125 C 5.765625 -2.703125 5.421875 -2.703125 5 -2.703125 C 4.6875 -2.703125 4.328125 -2.703125 4.046875 -2.578125 Z M 4.046875 -2.578125 "/>
</symbol>
<symbol overflow="visible" id="glyph5-5">
<path style="stroke:none;" d="M 16.1875 -12.015625 C 16.609375 -12.015625 17.65625 -12.015625 17.65625 -13.03125 C 17.65625 -13.734375 17.046875 -13.734375 16.484375 -13.734375 L 9.4375 -13.734375 C 4.65625 -13.734375 1.21875 -8.421875 1.21875 -4.65625 C 1.21875 -1.9375 2.96875 0.3125 5.828125 0.3125 C 9.59375 0.3125 13.703125 -3.734375 13.703125 -8.515625 C 13.703125 -9.75 13.421875 -10.96875 12.65625 -12.015625 Z M 5.859375 -0.3125 C 4.234375 -0.3125 3.0625 -1.5625 3.0625 -3.765625 C 3.0625 -5.671875 4.203125 -12.015625 8.890625 -12.015625 C 10.265625 -12.015625 11.796875 -11.34375 11.796875 -8.890625 C 11.796875 -7.78125 11.28125 -5.09375 10.171875 -3.25 C 9.015625 -1.375 7.296875 -0.3125 5.859375 -0.3125 Z M 5.859375 -0.3125 "/>
</symbol>
<symbol overflow="visible" id="glyph6-0">
<path style="stroke:none;" d=""/>
</symbol>
<symbol overflow="visible" id="glyph6-1">
<path style="stroke:none;" d="M 10.59375 -9.0625 L 8.5 -13.9375 C 8.796875 -14.484375 9.453125 -14.5625 9.734375 -14.59375 C 9.859375 -14.59375 10.109375 -14.609375 10.109375 -15 C 10.109375 -15.234375 9.90625 -15.234375 9.765625 -15.234375 C 9.390625 -15.234375 8.953125 -15.1875 8.5625 -15.1875 L 7.28125 -15.1875 C 5.90625 -15.1875 4.9375 -15.234375 4.90625 -15.234375 C 4.734375 -15.234375 4.5 -15.234375 4.5 -14.8125 C 4.5 -14.59375 4.703125 -14.59375 5 -14.59375 C 6.296875 -14.59375 6.375 -14.375 6.609375 -13.828125 L 9.265625 -7.625 L 4.421875 -2.453125 C 3.609375 -1.578125 2.65625 -0.734375 1 -0.640625 C 0.734375 -0.625 0.5625 -0.625 0.5625 -0.21875 C 0.5625 -0.15625 0.578125 0 0.828125 0 C 1.140625 0 1.46875 -0.046875 1.78125 -0.046875 L 2.828125 -0.046875 C 3.546875 -0.046875 4.328125 0 5.015625 0 C 5.171875 0 5.4375 0 5.4375 -0.40625 C 5.4375 -0.625 5.28125 -0.640625 5.15625 -0.640625 C 4.703125 -0.6875 4.421875 -0.9375 4.421875 -1.296875 C 4.421875 -1.671875 4.6875 -1.9375 5.328125 -2.609375 L 7.3125 -4.78125 C 7.8125 -5.28125 8.984375 -6.578125 9.484375 -7.078125 L 11.828125 -1.578125 C 11.84375 -1.546875 11.9375 -1.3125 11.9375 -1.296875 C 11.9375 -1.09375 11.453125 -0.6875 10.734375 -0.640625 C 10.59375 -0.640625 10.359375 -0.625 10.359375 -0.21875 C 10.359375 0 10.578125 0 10.6875 0 C 11.0625 0 11.515625 -0.046875 11.890625 -0.046875 L 14.34375 -0.046875 C 14.75 -0.046875 15.171875 0 15.546875 0 C 15.703125 0 15.953125 0 15.953125 -0.421875 C 15.953125 -0.640625 15.734375 -0.640625 15.53125 -0.640625 C 14.1875 -0.671875 14.140625 -0.78125 13.765625 -1.609375 L 10.828125 -8.515625 L 13.65625 -11.5625 C 13.875 -11.78125 14.390625 -12.34375 14.59375 -12.5625 C 15.546875 -13.5625 16.4375 -14.484375 18.25 -14.59375 C 18.46875 -14.609375 18.703125 -14.609375 18.703125 -15 C 18.703125 -15.234375 18.5 -15.234375 18.40625 -15.234375 C 18.09375 -15.234375 17.765625 -15.1875 17.453125 -15.1875 L 16.421875 -15.1875 C 15.703125 -15.1875 14.921875 -15.234375 14.234375 -15.234375 C 14.078125 -15.234375 13.8125 -15.234375 13.8125 -14.84375 C 13.8125 -14.609375 13.96875 -14.59375 14.09375 -14.59375 C 14.453125 -14.546875 14.84375 -14.375 14.84375 -13.9375 L 14.8125 -13.90625 C 14.796875 -13.75 14.75 -13.515625 14.5 -13.25 Z M 10.59375 -9.0625 "/>
</symbol>
<symbol overflow="visible" id="glyph7-0">
<path style="stroke:none;" d=""/>
</symbol>
<symbol overflow="visible" id="glyph7-1">
<path style="stroke:none;" d="M 21 -7.328125 C 21.546875 -7.328125 22.125 -7.328125 22.125 -7.96875 C 22.125 -8.609375 21.546875 -8.609375 21 -8.609375 L 3.765625 -8.609375 C 3.21875 -8.609375 2.640625 -8.609375 2.640625 -7.96875 C 2.640625 -7.328125 3.21875 -7.328125 3.765625 -7.328125 Z M 21 -7.328125 "/>
</symbol>
<symbol overflow="visible" id="glyph7-2">
<path style="stroke:none;" d="M 13.03125 -9.984375 L 21.890625 -9.984375 C 22.4375 -9.984375 23.015625 -9.984375 23.015625 -10.609375 C 23.015625 -11.25 22.4375 -11.25 21.890625 -11.25 L 13.03125 -11.25 L 13.03125 -20.046875 C 13.03125 -20.5625 13.03125 -21.234375 12.40625 -21.234375 C 11.765625 -21.234375 11.765625 -20.65625 11.765625 -20.140625 L 11.765625 -11.25 L 2.875 -11.25 C 2.328125 -11.25 1.75 -11.25 1.75 -10.609375 C 1.75 -9.984375 2.328125 -9.984375 2.875 -9.984375 L 11.765625 -9.984375 L 11.765625 -1.28125 L 2.875 -1.28125 C 2.328125 -1.28125 1.75 -1.28125 1.75 -0.640625 C 1.75 0 2.328125 0 2.875 0 L 21.890625 0 C 22.4375 0 23.015625 0 23.015625 -0.640625 C 23.015625 -1.28125 22.4375 -1.28125 21.890625 -1.28125 L 13.03125 -1.28125 Z M 13.03125 -9.984375 "/>
</symbol>
<symbol overflow="visible" id="glyph8-0">
<path style="stroke:none;" d=""/>
</symbol>
<symbol overflow="visible" id="glyph8-1">
<path style="stroke:none;" d="M 7.859375 -6.609375 C 7.859375 -1.703125 5.828125 -0.171875 4.15625 -0.171875 C 3.640625 -0.171875 2.390625 -0.25 1.875 -1.109375 C 2.453125 -1.03125 2.875 -1.34375 2.875 -1.890625 C 2.875 -2.5 2.390625 -2.703125 2.078125 -2.703125 C 1.875 -2.703125 1.265625 -2.609375 1.265625 -1.859375 C 1.265625 -0.328125 2.59375 0.359375 4.1875 0.359375 C 6.765625 0.359375 9.375 -2.453125 9.375 -7.359375 C 9.375 -13.484375 6.875 -14.75 5.171875 -14.75 C 2.96875 -14.75 0.84375 -12.8125 0.84375 -9.8125 C 0.84375 -7.046875 2.65625 -5 4.9375 -5 C 6.8125 -5 7.625 -6.734375 7.859375 -7.46875 Z M 4.96875 -5.359375 C 4.375 -5.359375 3.53125 -5.46875 2.828125 -6.8125 C 2.359375 -7.671875 2.359375 -8.703125 2.359375 -9.796875 C 2.359375 -11.109375 2.359375 -12.03125 2.984375 -13.015625 C 3.296875 -13.484375 3.875 -14.234375 5.171875 -14.234375 C 7.8125 -14.234375 7.8125 -10.203125 7.8125 -9.296875 C 7.8125 -7.71875 7.09375 -5.359375 4.96875 -5.359375 Z M 4.96875 -5.359375 "/>
</symbol>
<symbol overflow="visible" id="glyph8-2">
<path style="stroke:none;" d="M 2.546875 -13.046875 C 2.765625 -12.96875 3.6875 -12.671875 4.625 -12.671875 C 6.6875 -12.671875 7.828125 -13.796875 8.484375 -14.4375 C 8.484375 -14.609375 8.484375 -14.71875 8.34375 -14.71875 C 8.328125 -14.71875 8.28125 -14.71875 8.09375 -14.640625 C 7.3125 -14.296875 6.40625 -14.03125 5.28125 -14.03125 C 4.625 -14.03125 3.609375 -14.125 2.515625 -14.609375 C 2.28125 -14.71875 2.234375 -14.71875 2.203125 -14.71875 C 2.09375 -14.71875 2.078125 -14.703125 2.078125 -14.25 L 2.078125 -7.78125 C 2.078125 -7.390625 2.078125 -7.28125 2.296875 -7.28125 C 2.40625 -7.28125 2.453125 -7.3125 2.5625 -7.46875 C 3.28125 -8.484375 4.265625 -8.90625 5.375 -8.90625 C 6.15625 -8.90625 7.828125 -8.40625 7.828125 -4.59375 C 7.828125 -3.875 7.828125 -2.59375 7.15625 -1.5625 C 6.609375 -0.640625 5.734375 -0.171875 4.78125 -0.171875 C 3.296875 -0.171875 1.8125 -1.203125 1.40625 -2.921875 C 1.5 -2.90625 1.671875 -2.859375 1.765625 -2.859375 C 2.046875 -2.859375 2.609375 -3.015625 2.609375 -3.703125 C 2.609375 -4.3125 2.1875 -4.546875 1.765625 -4.546875 C 1.25 -4.546875 0.921875 -4.234375 0.921875 -3.609375 C 0.921875 -1.671875 2.453125 0.359375 4.8125 0.359375 C 7.125 0.359375 9.296875 -1.625 9.296875 -4.5 C 9.296875 -7.1875 7.5625 -9.265625 5.40625 -9.265625 C 4.265625 -9.265625 3.296875 -8.828125 2.546875 -8.03125 Z M 2.546875 -13.046875 "/>
</symbol>
<symbol overflow="visible" id="glyph8-3">
<path style="stroke:none;" d="M 9.296875 -3.453125 L 8.90625 -3.453125 C 8.671875 -1.875 8.5 -1.609375 8.40625 -1.46875 C 8.296875 -1.296875 6.6875 -1.296875 6.375 -1.296875 L 2.09375 -1.296875 C 2.90625 -2.171875 4.46875 -3.75 6.359375 -5.578125 C 7.71875 -6.875 9.296875 -8.390625 9.296875 -10.59375 C 9.296875 -13.234375 7.203125 -14.75 4.859375 -14.75 C 2.40625 -14.75 0.921875 -12.578125 0.921875 -10.578125 C 0.921875 -9.703125 1.5625 -9.59375 1.828125 -9.59375 C 2.046875 -9.59375 2.71875 -9.734375 2.71875 -10.515625 C 2.71875 -11.203125 2.140625 -11.40625 1.828125 -11.40625 C 1.703125 -11.40625 1.5625 -11.375 1.46875 -11.328125 C 1.890625 -13.234375 3.1875 -14.171875 4.546875 -14.171875 C 6.5 -14.171875 7.765625 -12.625 7.765625 -10.59375 C 7.765625 -8.65625 6.625 -6.984375 5.359375 -5.53125 L 0.921875 -0.515625 L 0.921875 0 L 8.765625 0 Z M 9.296875 -3.453125 "/>
</symbol>
<symbol overflow="visible" id="glyph9-0">
<path style="stroke:none;" d=""/>
</symbol>
<symbol overflow="visible" id="glyph9-1">
<path style="stroke:none;" d="M 2.5 -6.921875 L 1.15625 -5.5625 L 1.328125 -5.390625 L 2.5 -6.40625 L 3.640625 -5.390625 L 3.8125 -5.5625 Z M 2.5 -6.921875 "/>
</symbol>
<symbol overflow="visible" id="glyph10-0">
<path style="stroke:none;" d=""/>
</symbol>
<symbol overflow="visible" id="glyph10-1">
<path style="stroke:none;" d="M 4.25 -6.046875 C 4.328125 -6.328125 4.359375 -6.390625 4.484375 -6.421875 C 4.578125 -6.4375 4.90625 -6.4375 5.109375 -6.4375 C 6.125 -6.4375 6.5625 -6.40625 6.5625 -5.625 C 6.5625 -5.46875 6.53125 -5.078125 6.484375 -4.828125 C 6.484375 -4.78125 6.453125 -4.671875 6.453125 -4.640625 C 6.453125 -4.578125 6.484375 -4.5 6.578125 -4.5 C 6.6875 -4.5 6.703125 -4.578125 6.734375 -4.734375 L 7 -6.46875 C 7.015625 -6.515625 7.015625 -6.609375 7.015625 -6.640625 C 7.015625 -6.75 6.921875 -6.75 6.75 -6.75 L 1.21875 -6.75 C 0.984375 -6.75 0.96875 -6.734375 0.890625 -6.546875 L 0.296875 -4.796875 C 0.296875 -4.78125 0.234375 -4.640625 0.234375 -4.609375 C 0.234375 -4.5625 0.296875 -4.5 0.359375 -4.5 C 0.453125 -4.5 0.46875 -4.5625 0.53125 -4.71875 C 1.0625 -6.265625 1.328125 -6.4375 2.796875 -6.4375 L 3.1875 -6.4375 C 3.46875 -6.4375 3.46875 -6.40625 3.46875 -6.3125 C 3.46875 -6.265625 3.4375 -6.140625 3.421875 -6.109375 L 2.09375 -0.78125 C 2 -0.421875 1.96875 -0.3125 0.90625 -0.3125 C 0.546875 -0.3125 0.484375 -0.3125 0.484375 -0.125 C 0.484375 0 0.59375 0 0.65625 0 C 0.921875 0 1.203125 -0.015625 1.46875 -0.015625 C 1.75 -0.015625 2.046875 -0.03125 2.328125 -0.03125 C 2.609375 -0.03125 2.875 -0.015625 3.15625 -0.015625 C 3.4375 -0.015625 3.734375 0 4.015625 0 C 4.109375 0 4.234375 0 4.234375 -0.203125 C 4.234375 -0.3125 4.15625 -0.3125 3.890625 -0.3125 C 3.65625 -0.3125 3.515625 -0.3125 3.265625 -0.328125 C 2.96875 -0.359375 2.890625 -0.390625 2.890625 -0.546875 C 2.890625 -0.5625 2.890625 -0.609375 2.9375 -0.75 Z M 4.25 -6.046875 "/>
</symbol>
<symbol overflow="visible" id="glyph11-0">
<path style="stroke:none;" d=""/>
</symbol>
<symbol overflow="visible" id="glyph11-1">
<path style="stroke:none;" d="M 6.5625 -2.296875 C 6.734375 -2.296875 6.921875 -2.296875 6.921875 -2.5 C 6.921875 -2.6875 6.734375 -2.6875 6.5625 -2.6875 L 1.171875 -2.6875 C 1 -2.6875 0.828125 -2.6875 0.828125 -2.5 C 0.828125 -2.296875 1 -2.296875 1.171875 -2.296875 Z M 6.5625 -2.296875 "/>
</symbol>
<symbol overflow="visible" id="glyph12-0">
<path style="stroke:none;" d="M 4.890625 0 L 4.890625 -10.203125 L 0.734375 -10.203125 L 0.734375 0 Z M 4.578125 -0.609375 L 2.96875 -5.09375 L 4.578125 -9.59375 Z M 1.046875 -9.53125 L 2.625 -5.09375 L 1.046875 -0.65625 Z M 1.28125 -0.375 L 2.796875 -4.625 L 4.296875 -0.375 Z M 2.796875 -5.578125 L 1.28125 -9.828125 L 4.296875 -9.828125 Z M 2.796875 -5.578125 "/>
</symbol>
<symbol overflow="visible" id="glyph12-1">
<path style="stroke:none;" d="M 1.5 -1.0625 L 5.84375 -6.578125 L 6.015625 -7.578125 L 1.25 -7.578125 L 1.0625 -6.515625 L 4.359375 -6.515625 L 0.09375 -1.015625 L -0.09375 0 L 4.828125 0 L 5.015625 -1.0625 Z M 1.5 -1.0625 "/>
</symbol>
</g>
</defs>
<g id="surface1">
<g style="fill:rgb(0%,0%,0%);fill-opacity:1;">
  <use xlink:href="#glyph0-1" x="6.844" y="86.018"/>
  <use xlink:href="#glyph0-2" x="21.464351" y="86.018"/>
  <use xlink:href="#glyph0-3" x="36.084703" y="86.018"/>
</g>
<g style="fill:rgb(0%,0%,0%);fill-opacity:1;">
  <use xlink:href="#glyph0-4" x="70.327441" y="86.018"/>
  <use xlink:href="#glyph0-5" x="91.610796" y="86.018"/>
</g>
<g style="fill:rgb(0%,0%,0%);fill-opacity:1;">
  <use xlink:href="#glyph0-6" x="110.917566" y="86.018"/>
</g>
<g style="fill:rgb(29.998779%,29.998779%,29.998779%);fill-opacity:1;">
  <use xlink:href="#glyph1-1" x="218.546" y="32.474"/>
  <use xlink:href="#glyph1-2" x="225.661715" y="32.474"/>
  <use xlink:href="#glyph1-3" x="232.189236" y="32.474"/>
  <use xlink:href="#glyph1-4" x="236.421365" y="32.474"/>
  <use xlink:href="#glyph1-5" x="239.706645" y="32.474"/>
  <use xlink:href="#glyph1-6" x="250.494987" y="32.474"/>
  <use xlink:href="#glyph1-3" x="257.366817" y="32.474"/>
  <use xlink:href="#glyph1-7" x="261.598946" y="32.474"/>
  <use xlink:href="#glyph1-8" x="268.312968" y="32.474"/>
</g>
<g style="fill:rgb(29.998779%,29.998779%,29.998779%);fill-opacity:1;">
  <use xlink:href="#glyph1-9" x="278.713963" y="32.474"/>
</g>
<g style="fill:rgb(29.998779%,29.998779%,29.998779%);fill-opacity:1;">
  <use xlink:href="#glyph1-10" x="285.643177" y="32.474"/>
  <use xlink:href="#glyph1-11" x="290.004422" y="32.474"/>
  <use xlink:href="#glyph1-7" x="296.933637" y="32.474"/>
</g>
<g style="fill:rgb(29.998779%,29.998779%,29.998779%);fill-opacity:1;">
  <use xlink:href="#glyph1-12" x="306.932938" y="32.474"/>
  <use xlink:href="#glyph1-13" x="314.36427" y="32.474"/>
  <use xlink:href="#glyph1-14" x="320.977868" y="32.474"/>
  <use xlink:href="#glyph1-10" x="328.165314" y="32.474"/>
</g>
<g style="fill:rgb(29.998779%,29.998779%,29.998779%);fill-opacity:1;">
  <use xlink:href="#glyph1-7" x="332.397443" y="32.474"/>
</g>
<g style="fill:rgb(29.998779%,29.998779%,29.998779%);fill-opacity:1;">
  <use xlink:href="#glyph2-1" x="345.147" y="28.848"/>
</g>
<g style="fill:rgb(29.998779%,29.998779%,29.998779%);fill-opacity:1;">
  <use xlink:href="#glyph3-1" x="342.396" y="32.474"/>
</g>
<g style="fill:rgb(79.998779%,79.998779%,79.998779%);fill-opacity:1;">
  <use xlink:href="#glyph4-1" x="142.712" y="49.539"/>
</g>
<path style=" stroke:none;fill-rule:nonzero;fill:rgb(79.998779%,79.998779%,79.998779%);fill-opacity:1;" d="M 157.058594 49.539063 L 414.066406 49.539063 L 414.066406 45.714844 L 157.058594 45.714844 Z M 157.058594 49.539063 "/>
<g style="fill:rgb(79.998779%,79.998779%,79.998779%);fill-opacity:1;">
  <use xlink:href="#glyph4-2" x="414.068" y="49.539"/>
</g>
<path style=" stroke:none;fill-rule:nonzero;fill:rgb(87.399292%,86.732483%,91.532898%);fill-opacity:1;" d="M 142.710938 96.949219 L 205.066406 96.949219 L 205.066406 59.148438 L 142.710938 59.148438 Z M 142.710938 96.949219 "/>
<g style="fill:rgb(25.881958%,21.961975%,50.193787%);fill-opacity:1;">
  <use xlink:href="#glyph5-1" x="145.701" y="86.018"/>
</g>
<g style="fill:rgb(25.881958%,21.961975%,50.193787%);fill-opacity:1;">
  <use xlink:href="#glyph6-1" x="161.802" y="90.8"/>
</g>
<g style="fill:rgb(25.881958%,21.961975%,50.193787%);fill-opacity:1;">
  <use xlink:href="#glyph6-1" x="181.699124" y="90.8"/>
</g>
<g style="fill:rgb(0%,0%,0%);fill-opacity:1;">
  <use xlink:href="#glyph0-7" x="205.067" y="86.018"/>
</g>
<path style=" stroke:none;fill-rule:nonzero;fill:rgb(85.932922%,89.199829%,91.532898%);fill-opacity:1;" d="M 216.355469 96.949219 L 250.746094 96.949219 L 250.746094 59.148438 L 216.355469 59.148438 Z M 216.355469 96.949219 "/>
<g style="fill:rgb(17.254639%,36.471558%,50.193787%);fill-opacity:1;">
  <use xlink:href="#glyph5-2" x="219.346" y="86.018"/>
</g>
<g style="fill:rgb(0%,0%,0%);fill-opacity:1;">
  <use xlink:href="#glyph7-1" x="257.833" y="86.018"/>
</g>
<path style=" stroke:none;fill-rule:nonzero;fill:rgb(84.931946%,91.532898%,91.265869%);fill-opacity:1;" d="M 289.714844 96.949219 L 334.859375 96.949219 L 334.859375 59.148438 L 289.714844 59.148438 Z M 289.714844 96.949219 "/>
<g style="fill:rgb(11.373901%,50.193787%,48.626709%);fill-opacity:1;">
  <use xlink:href="#glyph5-3" x="292.702" y="86.018"/>
</g>
<g style="fill:rgb(11.373901%,50.193787%,48.626709%);fill-opacity:1;">
  <use xlink:href="#glyph6-1" x="311.484" y="90.8"/>
</g>
<g style="fill:rgb(0%,0%,0%);fill-opacity:1;">
  <use xlink:href="#glyph0-8" x="334.86" y="86.018"/>
</g>
<g style="fill:rgb(0%,0%,0%);fill-opacity:1;">
  <use xlink:href="#glyph0-9" x="353.226298" y="86.018"/>
</g>
<path style=" stroke:none;fill-rule:nonzero;fill:rgb(84.931946%,91.532898%,91.265869%);fill-opacity:1;" d="M 383.269531 96.949219 L 428.414063 96.949219 L 428.414063 59.148438 L 383.269531 59.148438 Z M 383.269531 96.949219 "/>
<g style="fill:rgb(11.373901%,50.193787%,48.626709%);fill-opacity:1;">
  <use xlink:href="#glyph5-3" x="386.256" y="86.018"/>
</g>
<g style="fill:rgb(11.373901%,50.193787%,48.626709%);fill-opacity:1;">
  <use xlink:href="#glyph6-1" x="405.038" y="90.8"/>
</g>
<g style="fill:rgb(29.998779%,29.998779%,29.998779%);fill-opacity:1;">
  <use xlink:href="#glyph7-2" x="433.727" y="86.018"/>
</g>
<path style=" stroke:none;fill-rule:nonzero;fill:rgb(85.467529%,91.532898%,88.598633%);fill-opacity:1;" d="M 458.523438 96.949219 L 499.96875 96.949219 L 499.96875 59.148438 L 458.523438 59.148438 Z M 458.523438 96.949219 "/>
<g style="fill:rgb(14.509583%,50.193787%,32.939148%);fill-opacity:1;">
  <use xlink:href="#glyph5-4" x="461.512" y="86.018"/>
</g>
<g style="fill:rgb(14.509583%,50.193787%,32.939148%);fill-opacity:1;">
  <use xlink:href="#glyph8-1" x="476.013" y="90.8"/>
  <use xlink:href="#glyph8-2" x="486.247209" y="90.8"/>
</g>
<g style="fill:rgb(29.998779%,29.998779%,29.998779%);fill-opacity:1;">
  <use xlink:href="#glyph1-12" x="522.8" y="14.091"/>
  <use xlink:href="#glyph1-3" x="530.231332" y="14.091"/>
  <use xlink:href="#glyph1-6" x="534.463461" y="14.091"/>
  <use xlink:href="#glyph1-15" x="541.33529" y="14.091"/>
  <use xlink:href="#glyph1-8" x="548.264505" y="14.091"/>
  <use xlink:href="#glyph1-6" x="555.38022" y="14.091"/>
  <use xlink:href="#glyph1-10" x="562.25205" y="14.091"/>
</g>
<g style="fill:rgb(29.998779%,29.998779%,29.998779%);fill-opacity:1;">
  <use xlink:href="#glyph1-8" x="566.484179" y="14.091"/>
</g>
<g style="fill:rgb(29.998779%,29.998779%,29.998779%);fill-opacity:1;">
  <use xlink:href="#glyph1-1" x="576.885174" y="14.091"/>
  <use xlink:href="#glyph1-10" x="584.000889" y="14.091"/>
  <use xlink:href="#glyph1-10" x="588.362134" y="14.091"/>
</g>
<g style="fill:rgb(29.998779%,29.998779%,29.998779%);fill-opacity:1;">
  <use xlink:href="#glyph1-14" x="592.579917" y="14.091"/>
  <use xlink:href="#glyph1-10" x="599.767363" y="14.091"/>
</g>
<g style="fill:rgb(29.998779%,29.998779%,29.998779%);fill-opacity:1;">
  <use xlink:href="#glyph1-14" x="607.413888" y="14.091"/>
  <use xlink:href="#glyph1-16" x="614.601334" y="14.091"/>
</g>
<g style="fill:rgb(29.998779%,29.998779%,29.998779%);fill-opacity:1;">
  <use xlink:href="#glyph1-1" x="622.420013" y="14.091"/>
  <use xlink:href="#glyph1-2" x="629.535728" y="14.091"/>
  <use xlink:href="#glyph1-3" x="636.063249" y="14.091"/>
  <use xlink:href="#glyph1-4" x="640.295378" y="14.091"/>
  <use xlink:href="#glyph1-5" x="643.580658" y="14.091"/>
  <use xlink:href="#glyph1-6" x="654.369" y="14.091"/>
  <use xlink:href="#glyph1-3" x="661.24083" y="14.091"/>
  <use xlink:href="#glyph1-4" x="665.472959" y="14.091"/>
  <use xlink:href="#glyph1-14" x="668.758239" y="14.091"/>
  <use xlink:href="#glyph1-15" x="675.945685" y="14.091"/>
</g>
<g style="fill:rgb(29.998779%,29.998779%,29.998779%);fill-opacity:1;">
  <use xlink:href="#glyph3-2" x="686.160179" y="14.091"/>
</g>
<g style="fill:rgb(29.998779%,29.998779%,29.998779%);fill-opacity:1;">
  <use xlink:href="#glyph9-1" x="696.086" y="16.068"/>
</g>
<g style="fill:rgb(29.998779%,29.998779%,29.998779%);fill-opacity:1;">
  <use xlink:href="#glyph10-1" x="694.144" y="18.587"/>
</g>
<g style="fill:rgb(29.998779%,29.998779%,29.998779%);fill-opacity:1;">
  <use xlink:href="#glyph11-1" x="701.350945" y="18.587"/>
</g>
<g style="fill:rgb(29.998779%,29.998779%,29.998779%);fill-opacity:1;">
  <use xlink:href="#glyph10-1" x="709.099855" y="18.587"/>
</g>
<g style="fill:rgb(79.998779%,79.998779%,79.998779%);fill-opacity:1;">
  <use xlink:href="#glyph4-1" x="499.969" y="33.648"/>
</g>
<path style=" stroke:none;fill-rule:nonzero;fill:rgb(79.998779%,79.998779%,79.998779%);fill-opacity:1;" d="M 514.316406 33.648438 L 725.285156 33.648438 L 725.285156 29.820313 L 514.316406 29.820313 Z M 514.316406 33.648438 "/>
<g style="fill:rgb(79.998779%,79.998779%,79.998779%);fill-opacity:1;">
  <use xlink:href="#glyph4-2" x="725.286" y="33.648"/>
</g>
<path style=" stroke:none;fill-rule:nonzero;fill:rgb(91.598511%,93.998718%,85.865784%);fill-opacity:1;" d="M 499.96875 96.949219 L 544.078125 96.949219 L 544.078125 59.148438 L 499.96875 59.148438 Z M 499.96875 96.949219 "/>
<g style="fill:rgb(50.585938%,64.704895%,16.862488%);fill-opacity:1;">
  <use xlink:href="#glyph5-5" x="502.958" y="86.018"/>
</g>
<g style="fill:rgb(50.585938%,64.704895%,16.862488%);fill-opacity:1;">
  <use xlink:href="#glyph6-1" x="520.701" y="90.8"/>
</g>
<g style="fill:rgb(0%,0%,0%);fill-opacity:1;">
  <use xlink:href="#glyph4-3" x="544.077" y="45.807"/>
</g>
<path style=" stroke:none;fill-rule:nonzero;fill:rgb(0%,0%,0%);fill-opacity:1;" d="M 575.957031 45.808594 L 739.632813 45.808594 L 739.632813 44.53125 L 575.957031 44.53125 Z M 575.957031 45.808594 "/>
<g style="fill:rgb(25.881958%,21.961975%,50.193787%);fill-opacity:1;">
  <use xlink:href="#glyph5-1" x="578.946" y="86.018"/>
</g>
<g style="fill:rgb(25.881958%,21.961975%,50.193787%);fill-opacity:1;">
  <use xlink:href="#glyph6-1" x="595.047" y="90.8"/>
</g>
<g style="fill:rgb(25.881958%,21.961975%,50.193787%);fill-opacity:1;">
  <use xlink:href="#glyph6-1" x="614.944124" y="90.8"/>
</g>
<g style="fill:rgb(0%,0%,0%);fill-opacity:1;">
  <use xlink:href="#glyph7-1" x="645.397" y="86.018"/>
</g>
<g style="fill:rgb(25.881958%,21.961975%,50.193787%);fill-opacity:1;">
  <use xlink:href="#glyph5-1" x="680.266" y="86.018"/>
</g>
<g style="fill:rgb(25.881958%,21.961975%,50.193787%);fill-opacity:1;">
  <use xlink:href="#glyph8-3" x="696.367" y="72.854"/>
</g>
<g style="fill:rgb(25.881958%,21.961975%,50.193787%);fill-opacity:1;">
  <use xlink:href="#glyph6-1" x="696.367" y="93.899"/>
</g>
<g style="fill:rgb(25.881958%,21.961975%,50.193787%);fill-opacity:1;">
  <use xlink:href="#glyph6-1" x="716.264124" y="93.899"/>
</g>
<g style="fill:rgb(25.881958%,21.961975%,50.193787%);fill-opacity:1;">
  <use xlink:href="#glyph1-17" x="115.15" y="118.726"/>
  <use xlink:href="#glyph1-7" x="122.753486" y="118.726"/>
  <use xlink:href="#glyph1-18" x="129.467508" y="118.726"/>
  <use xlink:href="#glyph1-4" x="132.752787" y="118.726"/>
  <use xlink:href="#glyph1-6" x="136.038067" y="118.726"/>
  <use xlink:href="#glyph1-19" x="142.909897" y="118.726"/>
  <use xlink:href="#glyph1-4" x="149.982574" y="118.726"/>
  <use xlink:href="#glyph1-18" x="153.267853" y="118.726"/>
  <use xlink:href="#glyph1-4" x="156.553133" y="118.726"/>
  <use xlink:href="#glyph1-3" x="159.838413" y="118.726"/>
  <use xlink:href="#glyph1-20" x="164.070542" y="118.726"/>
</g>
<g style="fill:rgb(25.881958%,21.961975%,50.193787%);fill-opacity:1;">
  <use xlink:href="#glyph1-21" x="108.694" y="136.659"/>
  <use xlink:href="#glyph1-14" x="116.813949" y="136.659"/>
  <use xlink:href="#glyph1-7" x="124.001395" y="136.659"/>
  <use xlink:href="#glyph1-16" x="130.715417" y="136.659"/>
  <use xlink:href="#glyph1-22" x="135.248816" y="136.659"/>
  <use xlink:href="#glyph1-13" x="142.264108" y="136.659"/>
  <use xlink:href="#glyph1-4" x="148.877706" y="136.659"/>
  <use xlink:href="#glyph1-7" x="152.162986" y="136.659"/>
  <use xlink:href="#glyph1-15" x="158.877008" y="136.659"/>
  <use xlink:href="#glyph1-3" x="165.806222" y="136.659"/>
</g>
<path style="fill:none;stroke-width:1.19553;stroke-linecap:butt;stroke-linejoin:miter;stroke:rgb(25.881958%,21.961975%,50.193787%);stroke-opacity:1;stroke-miterlimit:10;" d="M -594.952187 -16.376531 L -594.952187 -55.532781 L -664.506875 -55.532781 " transform="matrix(1,0,0,-1,768.835,86.018)"/>
<path style=" stroke:none;fill-rule:nonzero;fill:rgb(25.881958%,21.961975%,50.193787%);fill-opacity:1;" d="M 173.882813 98.566406 C 173.5625 100.160156 172.925781 103.03125 171.492188 104.941406 C 173.246094 103.347656 174.519531 103.347656 176.273438 104.941406 C 174.839844 103.03125 174.199219 100.160156 173.882813 98.566406 Z M 173.882813 98.566406 "/>
<g style="fill:rgb(17.254639%,36.471558%,50.193787%);fill-opacity:1;">
  <use xlink:href="#glyph1-23" x="237.404" y="118.726"/>
  <use xlink:href="#glyph1-19" x="246.01172" y="118.726"/>
  <use xlink:href="#glyph1-2" x="253.084397" y="118.726"/>
  <use xlink:href="#glyph1-7" x="259.611918" y="118.726"/>
  <use xlink:href="#glyph1-10" x="266.325939" y="118.726"/>
</g>
<g style="fill:rgb(17.254639%,36.471558%,50.193787%);fill-opacity:1;">
  <use xlink:href="#glyph1-24" x="270.8163" y="118.726"/>
</g>
<g style="fill:rgb(17.254639%,36.471558%,50.193787%);fill-opacity:1;">
  <use xlink:href="#glyph1-7" x="276.85605" y="118.726"/>
  <use xlink:href="#glyph1-8" x="283.570072" y="118.726"/>
</g>
<g style="fill:rgb(17.254639%,36.471558%,50.193787%);fill-opacity:1;">
  <use xlink:href="#glyph1-12" x="237.404" y="136.659"/>
  <use xlink:href="#glyph1-13" x="244.835332" y="136.659"/>
  <use xlink:href="#glyph1-14" x="251.44893" y="136.659"/>
  <use xlink:href="#glyph1-10" x="258.636376" y="136.659"/>
</g>
<g style="fill:rgb(17.254639%,36.471558%,50.193787%);fill-opacity:1;">
  <use xlink:href="#glyph1-7" x="262.868505" y="136.659"/>
</g>
<path style="fill:none;stroke-width:1.19553;stroke-linecap:butt;stroke-linejoin:miter;stroke:rgb(17.254639%,36.471558%,50.193787%);stroke-opacity:1;stroke-miterlimit:10;" d="M -564.491125 -16.376531 L -564.491125 -55.532781 L -502.998937 -55.532781 " transform="matrix(1,0,0,-1,798.038,86.018)"/>
<path style=" stroke:none;fill-rule:nonzero;fill:rgb(17.254639%,36.471558%,50.193787%);fill-opacity:1;" d="M 233.546875 98.566406 C 233.226563 100.160156 232.589844 103.03125 231.15625 104.941406 C 232.910156 103.347656 234.183594 103.347656 235.9375 104.941406 C 234.503906 103.03125 233.863281 100.160156 233.546875 98.566406 Z M 233.546875 98.566406 "/>
<g style="fill:rgb(14.509583%,50.193787%,32.939148%);fill-opacity:1;">
  <use xlink:href="#glyph1-25" x="452.04" y="118.181"/>
  <use xlink:href="#glyph1-26" x="459.256139" y="118.181"/>
  <use xlink:href="#glyph1-27" x="466.328815" y="118.181"/>
</g>
<g style="fill:rgb(14.509583%,50.193787%,32.939148%);fill-opacity:1;">
  <use xlink:href="#glyph12-1" x="433.49" y="136.113"/>
</g>
<g style="fill:rgb(14.509583%,50.193787%,32.939148%);fill-opacity:1;">
  <use xlink:href="#glyph1-28" x="439.658866" y="136.113"/>
  <use xlink:href="#glyph1-12" x="443.216724" y="136.113"/>
  <use xlink:href="#glyph1-13" x="450.648055" y="136.113"/>
  <use xlink:href="#glyph1-14" x="457.261653" y="136.113"/>
  <use xlink:href="#glyph1-10" x="464.4491" y="136.113"/>
</g>
<g style="fill:rgb(14.509583%,50.193787%,32.939148%);fill-opacity:1;">
  <use xlink:href="#glyph1-7" x="468.681229" y="136.113"/>
</g>
<path style="fill:none;stroke-width:1.19553;stroke-linecap:butt;stroke-linejoin:miter;stroke:rgb(14.509583%,50.193787%,32.939148%);stroke-opacity:1;stroke-miterlimit:10;" d="M -347.997812 -16.376531 L -347.997812 -54.989813 L -398.115 -54.989813 " transform="matrix(1,0,0,-1,827.24,86.018)"/>
<path style=" stroke:none;fill-rule:nonzero;fill:rgb(14.509583%,50.193787%,32.939148%);fill-opacity:1;" d="M 479.242188 98.566406 C 478.921875 100.160156 478.285156 103.03125 476.851563 104.941406 C 478.605469 103.347656 479.878906 103.347656 481.632813 104.941406 C 480.199219 103.03125 479.558594 100.160156 479.242188 98.566406 Z M 479.242188 98.566406 "/>
<g style="fill:rgb(11.373901%,50.193787%,48.626709%);fill-opacity:1;">
  <use xlink:href="#glyph1-29" x="328.643" y="118.726"/>
</g>
<g style="fill:rgb(11.373901%,50.193787%,48.626709%);fill-opacity:1;">
  <use xlink:href="#glyph1-14" x="336.504718" y="118.726"/>
  <use xlink:href="#glyph1-30" x="343.692164" y="118.726"/>
  <use xlink:href="#glyph1-11" x="350.76484" y="118.726"/>
  <use xlink:href="#glyph1-18" x="357.694055" y="118.726"/>
  <use xlink:href="#glyph1-6" x="360.979335" y="118.726"/>
  <use xlink:href="#glyph1-3" x="367.851165" y="118.726"/>
  <use xlink:href="#glyph1-4" x="372.083294" y="118.726"/>
  <use xlink:href="#glyph1-14" x="375.368573" y="118.726"/>
  <use xlink:href="#glyph1-15" x="382.55602" y="118.726"/>
</g>
<g style="fill:rgb(11.373901%,50.193787%,48.626709%);fill-opacity:1;">
  <use xlink:href="#glyph1-31" x="343.391" y="136.659"/>
  <use xlink:href="#glyph1-7" x="354.222381" y="136.659"/>
  <use xlink:href="#glyph1-6" x="360.936403" y="136.659"/>
  <use xlink:href="#glyph1-15" x="367.808232" y="136.659"/>
</g>
<path style="fill:none;stroke-width:1.19553;stroke-linecap:butt;stroke-linejoin:miter;stroke:rgb(11.373901%,50.193787%,48.626709%);stroke-opacity:1;stroke-miterlimit:10;" d="M -529.56075 -16.376531 L -529.56075 -55.532781 L -436.006062 -55.532781 L -436.006062 -16.376531 " transform="matrix(1,0,0,-1,841.842,86.018)"/>
<path style=" stroke:none;fill-rule:nonzero;fill:rgb(11.373901%,50.193787%,48.626709%);fill-opacity:1;" d="M 312.28125 98.566406 C 311.960938 100.160156 311.324219 103.03125 309.890625 104.941406 C 311.644531 103.347656 312.917969 103.347656 314.671875 104.941406 C 313.238281 103.03125 312.597656 100.160156 312.28125 98.566406 Z M 312.28125 98.566406 "/>
<path style=" stroke:none;fill-rule:nonzero;fill:rgb(11.373901%,50.193787%,48.626709%);fill-opacity:1;" d="M 405.835938 98.566406 C 405.515625 100.160156 404.878906 103.03125 403.445313 104.941406 C 405.199219 103.347656 406.472656 103.347656 408.226563 104.941406 C 406.792969 103.03125 406.15625 100.160156 405.835938 98.566406 Z M 405.835938 98.566406 "/>
<g style="fill:rgb(50.585938%,64.704895%,16.862488%);fill-opacity:1;">
  <use xlink:href="#glyph1-29" x="525.874" y="118.726"/>
</g>
<g style="fill:rgb(50.585938%,64.704895%,16.862488%);fill-opacity:1;">
  <use xlink:href="#glyph1-14" x="533.735718" y="118.726"/>
  <use xlink:href="#glyph1-30" x="540.923164" y="118.726"/>
  <use xlink:href="#glyph1-11" x="547.99584" y="118.726"/>
  <use xlink:href="#glyph1-18" x="554.925055" y="118.726"/>
  <use xlink:href="#glyph1-6" x="558.210335" y="118.726"/>
  <use xlink:href="#glyph1-3" x="565.082165" y="118.726"/>
  <use xlink:href="#glyph1-4" x="569.314294" y="118.726"/>
  <use xlink:href="#glyph1-14" x="572.599573" y="118.726"/>
  <use xlink:href="#glyph1-15" x="579.78702" y="118.726"/>
</g>
<g style="fill:rgb(50.585938%,64.704895%,16.862488%);fill-opacity:1;">
  <use xlink:href="#glyph1-12" x="525.874" y="136.659"/>
  <use xlink:href="#glyph1-3" x="533.305332" y="136.659"/>
  <use xlink:href="#glyph1-6" x="537.537461" y="136.659"/>
  <use xlink:href="#glyph1-15" x="544.40929" y="136.659"/>
  <use xlink:href="#glyph1-8" x="551.338505" y="136.659"/>
  <use xlink:href="#glyph1-6" x="558.45422" y="136.659"/>
  <use xlink:href="#glyph1-10" x="565.32605" y="136.659"/>
</g>
<g style="fill:rgb(50.585938%,64.704895%,16.862488%);fill-opacity:1;">
  <use xlink:href="#glyph1-8" x="569.558179" y="136.659"/>
</g>
<g style="fill:rgb(50.585938%,64.704895%,16.862488%);fill-opacity:1;">
  <use xlink:href="#glyph1-32" x="579.959174" y="136.659"/>
  <use xlink:href="#glyph1-7" x="588.136508" y="136.659"/>
</g>
<g style="fill:rgb(50.585938%,64.704895%,16.862488%);fill-opacity:1;">
  <use xlink:href="#glyph1-24" x="594.764452" y="136.659"/>
  <use xlink:href="#glyph1-4" x="600.89028" y="136.659"/>
  <use xlink:href="#glyph1-6" x="604.17556" y="136.659"/>
  <use xlink:href="#glyph1-3" x="611.047389" y="136.659"/>
  <use xlink:href="#glyph1-4" x="615.279518" y="136.659"/>
  <use xlink:href="#glyph1-14" x="618.564798" y="136.659"/>
  <use xlink:href="#glyph1-15" x="625.752244" y="136.659"/>
</g>
<path style="fill:none;stroke-width:1.19553;stroke-linecap:butt;stroke-linejoin:miter;stroke:rgb(50.585938%,64.704895%,16.862488%);stroke-opacity:1;stroke-miterlimit:10;" d="M -349.024469 -16.376531 L -349.024469 -55.532781 L -234.008844 -55.532781 " transform="matrix(1,0,0,-1,871.044,86.018)"/>
<path style=" stroke:none;fill-rule:nonzero;fill:rgb(50.585938%,64.704895%,16.862488%);fill-opacity:1;" d="M 522.019531 98.566406 C 521.699219 100.160156 521.0625 103.03125 519.628906 104.941406 C 521.382813 103.347656 522.65625 103.347656 524.410156 104.941406 C 522.976563 103.03125 522.335938 100.160156 522.019531 98.566406 Z M 522.019531 98.566406 "/>
</g>
</svg>
